<svg xmlns="http://www.w3.org/2000/svg" width="900" height="900" viewBox="0 0 900 900"><path d="M 258.3 300.0 C 258.0 300.9, 256.5 301.7, 256.2 302.6 C 255.8 303.4, 256.3 304.3, 256.3 305.2 C 256.4 306.2, 256.6 307.1, 256.6 308.1 C 256.5 309.0, 256.5 310.0, 255.9 310.7 C 255.3 311.4, 253.2 311.3, 253.0 312.3 C 252.8 313.3, 254.9 315.5, 254.7 316.5 C 254.5 317.5, 252.8 317.5, 252.0 318.0 C 251.1 318.5, 250.3 319.0, 249.5 319.5 C 248.7 320.0, 247.7 320.1, 247.2 320.9 C 246.6 321.7, 246.9 323.6, 246.3 324.3 C 245.7 325.1, 244.6 325.4, 243.5 325.3 C 242.5 325.3, 240.9 323.9, 240.0 324.1 C 239.1 324.4, 238.9 326.4, 238.1 326.8 C 237.3 327.2, 236.1 326.0, 235.2 326.3 C 234.3 326.6, 233.7 328.6, 232.8 328.6 C 231.9 328.7, 230.9 326.6, 230.0 326.5 C 229.1 326.4, 228.1 328.0, 227.2 328.1 C 226.3 328.3, 225.4 327.9, 224.5 327.4 C 223.7 327.0, 223.0 326.0, 222.3 325.4 C 221.5 324.8, 221.1 323.8, 220.1 324.0 C 219.0 324.2, 217.0 326.3, 215.9 326.4 C 214.7 326.6, 213.7 326.0, 213.3 325.0 C 212.8 324.0, 213.8 321.2, 213.3 320.3 C 212.8 319.4, 211.5 319.8, 210.4 319.6 C 209.3 319.4, 207.2 319.9, 206.8 319.1 C 206.4 318.3, 208.1 315.8, 207.9 314.8 C 207.7 313.8, 206.3 313.7, 205.6 313.0 C 205.0 312.4, 204.4 311.6, 203.9 310.8 C 203.4 310.0, 202.5 309.3, 202.5 308.4 C 202.4 307.4, 203.3 306.2, 203.5 305.3 C 203.7 304.3, 204.2 303.5, 203.6 302.6 C 203.0 301.7, 200.0 300.9, 199.8 300.0 C 199.6 299.1, 201.7 298.2, 202.4 297.3 C 203.0 296.4, 203.6 295.7, 203.7 294.8 C 203.8 293.9, 202.8 292.7, 203.0 291.8 C 203.2 290.9, 204.2 290.3, 204.8 289.6 C 205.4 288.9, 206.5 288.5, 206.7 287.5 C 206.8 286.6, 205.3 284.6, 205.7 283.8 C 206.1 283.0, 208.0 283.2, 208.9 282.7 C 209.7 282.1, 209.9 281.2, 210.7 280.7 C 211.4 280.2, 213.0 280.7, 213.4 279.8 C 213.9 278.9, 212.7 275.7, 213.4 275.1 C 214.0 274.6, 216.5 276.8, 217.4 276.3 C 218.2 275.9, 217.9 273.0, 218.6 272.5 C 219.4 272.0, 220.9 273.1, 221.9 273.3 C 222.9 273.5, 223.9 274.0, 224.8 273.7 C 225.7 273.4, 226.3 271.9, 227.2 271.7 C 228.1 271.5, 229.1 272.6, 230.0 272.4 C 230.9 272.3, 231.9 271.1, 232.9 271.0 C 233.8 270.9, 234.8 271.2, 235.6 271.9 C 236.4 272.5, 236.9 274.2, 237.7 274.8 C 238.4 275.3, 239.3 275.2, 240.2 275.3 C 241.1 275.4, 242.4 275.0, 243.1 275.5 C 243.8 276.0, 244.0 277.5, 244.5 278.2 C 245.1 279.0, 245.6 279.5, 246.5 279.9 C 247.3 280.3, 248.6 280.2, 249.5 280.5 C 250.5 280.8, 251.6 281.1, 252.3 281.7 C 253.0 282.3, 253.1 283.4, 253.8 284.1 C 254.5 284.8, 256.3 284.9, 256.5 285.8 C 256.7 286.8, 255.1 288.6, 255.1 289.6 C 255.2 290.6, 256.1 291.1, 256.5 292.0 C 256.9 292.8, 257.3 293.7, 257.4 294.5 C 257.6 295.4, 257.5 296.4, 257.6 297.3 C 257.7 298.2, 258.5 299.1, 258.3 300.0 Z" fill="none" stroke="#7a6f5a" stroke-width="0.8"></path><path d="M 289.0 300.0 C 288.5 301.9, 286.1 303.6, 285.3 305.4 C 284.5 307.2, 285.0 309.1, 284.4 310.8 C 283.8 312.5, 282.4 314.0, 281.6 315.6 C 280.8 317.3, 279.6 318.6, 279.6 320.5 C 279.5 322.5, 282.3 326.0, 281.3 327.4 C 280.4 328.9, 275.4 328.1, 273.8 329.3 C 272.2 330.4, 272.1 332.2, 271.7 334.2 C 271.3 336.2, 272.0 339.4, 271.3 341.3 C 270.6 343.2, 268.9 344.3, 267.6 345.8 C 266.3 347.2, 265.0 348.9, 263.4 350.1 C 261.9 351.2, 260.0 352.0, 258.2 352.8 C 256.4 353.5, 254.5 354.2, 252.7 354.7 C 250.8 355.2, 248.8 355.5, 246.9 355.7 C 245.0 355.9, 243.1 356.1, 241.2 356.2 C 239.3 356.2, 237.4 357.0, 235.5 356.2 C 233.7 355.5, 231.8 352.1, 230.0 351.7 C 228.2 351.4, 226.4 353.8, 224.7 354.2 C 222.9 354.5, 221.0 354.2, 219.3 353.7 C 217.6 353.2, 216.2 351.6, 214.5 351.1 C 212.8 350.7, 210.9 350.9, 208.9 350.9 C 207.0 350.8, 204.7 351.3, 202.8 350.9 C 200.9 350.4, 198.9 349.9, 197.7 348.3 C 196.5 346.8, 197.5 342.6, 195.8 341.7 C 194.1 340.7, 188.5 344.0, 187.5 342.5 C 186.6 341.0, 190.6 334.7, 190.1 332.7 C 189.6 330.7, 186.2 331.4, 184.5 330.4 C 182.8 329.4, 180.9 328.3, 179.9 326.8 C 179.0 325.2, 178.8 323.2, 178.8 321.2 C 178.7 319.3, 181.3 316.8, 179.9 315.2 C 178.6 313.6, 171.6 313.4, 170.8 311.8 C 169.9 310.2, 174.7 307.4, 174.7 305.5 C 174.6 303.5, 170.9 301.8, 170.7 300.0 C 170.5 298.2, 172.7 296.2, 173.5 294.4 C 174.3 292.6, 174.3 290.7, 175.3 289.1 C 176.4 287.5, 179.5 286.6, 179.6 284.7 C 179.7 282.8, 176.2 279.7, 175.8 277.6 C 175.5 275.4, 175.9 273.2, 177.5 271.9 C 179.0 270.7, 183.1 270.9, 185.2 270.1 C 187.3 269.3, 188.8 268.4, 190.0 267.2 C 191.2 265.9, 192.0 264.6, 192.6 262.6 C 193.1 260.6, 192.4 257.0, 193.3 255.3 C 194.2 253.5, 196.3 253.0, 197.9 252.0 C 199.5 251.0, 201.4 250.5, 202.9 249.3 C 204.5 248.2, 205.4 245.3, 207.3 245.2 C 209.2 245.1, 212.6 249.2, 214.4 248.7 C 216.3 248.2, 216.8 242.4, 218.5 242.2 C 220.2 241.9, 222.9 246.2, 224.8 247.2 C 226.7 248.2, 228.3 248.0, 230.0 248.1 C 231.7 248.3, 233.4 247.8, 235.1 248.0 C 236.8 248.2, 238.2 249.6, 240.1 249.3 C 242.0 249.0, 244.3 246.7, 246.4 246.1 C 248.4 245.5, 250.6 245.2, 252.6 245.5 C 254.5 245.8, 256.7 246.1, 257.8 247.9 C 259.0 249.7, 258.1 254.6, 259.3 256.1 C 260.6 257.6, 264.3 255.6, 265.5 256.8 C 266.7 257.9, 265.7 261.7, 266.8 263.2 C 267.8 264.7, 270.1 264.8, 271.8 265.7 C 273.4 266.7, 275.8 267.3, 276.5 268.9 C 277.2 270.6, 275.3 273.8, 275.9 275.4 C 276.6 277.1, 279.7 277.6, 280.5 279.1 C 281.4 280.6, 280.8 282.7, 281.3 284.4 C 281.7 286.2, 282.0 287.8, 283.1 289.4 C 284.3 291.1, 287.3 292.5, 288.3 294.3 C 289.3 296.0, 289.5 298.1, 289.0 300.0 Z" fill="none" stroke="#7a6f5a" stroke-width="0.8"></path><path d="M 309.1 300.0 C 309.4 302.6, 309.7 305.3, 309.1 307.8 C 308.6 310.3, 305.3 312.2, 305.8 315.1 C 306.3 317.9, 312.5 322.4, 312.0 324.9 C 311.4 327.4, 304.0 327.7, 302.5 330.0 C 301.0 332.4, 304.1 336.7, 302.9 339.0 C 301.8 341.3, 296.8 341.4, 295.5 343.7 C 294.1 346.1, 295.9 350.6, 294.7 353.1 C 293.6 355.6, 291.2 357.5, 288.6 358.6 C 286.0 359.7, 280.8 357.5, 279.1 359.8 C 277.4 362.2, 280.2 370.4, 278.6 372.7 C 276.9 375.0, 271.8 372.2, 269.3 373.5 C 266.8 374.8, 266.0 379.8, 263.4 380.6 C 260.8 381.4, 256.4 377.0, 253.8 378.3 C 251.1 379.5, 250.1 386.7, 247.5 388.1 C 245.0 389.4, 241.4 386.9, 238.5 386.5 C 235.6 386.1, 232.7 386.9, 230.0 385.9 C 227.3 384.9, 224.7 381.4, 222.1 380.5 C 219.4 379.6, 216.4 381.5, 214.0 380.5 C 211.5 379.6, 210.3 374.6, 207.3 374.9 C 204.3 375.2, 198.3 383.3, 195.9 382.3 C 193.5 381.4, 194.6 372.0, 193.0 369.1 C 191.5 366.3, 188.8 366.3, 186.6 365.0 C 184.3 363.8, 181.7 362.9, 179.4 361.7 C 177.0 360.4, 174.0 359.6, 172.5 357.5 C 170.9 355.5, 172.2 351.0, 170.0 349.3 C 167.7 347.6, 161.3 349.1, 159.0 347.4 C 156.8 345.7, 157.5 341.9, 156.6 339.2 C 155.8 336.6, 155.2 334.0, 153.9 331.5 C 152.7 329.1, 151.0 326.9, 149.1 324.5 C 147.2 322.2, 142.8 320.2, 142.3 317.5 C 141.7 314.7, 145.2 311.2, 146.0 308.3 C 146.8 305.4, 146.1 302.7, 147.1 300.0 C 148.0 297.3, 152.3 295.2, 151.5 292.3 C 150.7 289.4, 143.0 285.4, 142.4 282.6 C 141.7 279.7, 145.9 277.4, 147.5 275.0 C 149.2 272.5, 151.8 270.7, 152.4 267.9 C 153.0 265.0, 150.1 260.5, 151.1 257.8 C 152.1 255.2, 155.8 253.8, 158.2 252.0 C 160.6 250.2, 164.2 249.7, 165.5 247.1 C 166.8 244.4, 164.8 238.8, 166.2 236.2 C 167.5 233.5, 170.5 231.9, 173.4 231.1 C 176.4 230.2, 181.1 232.0, 184.0 231.1 C 186.8 230.2, 188.3 227.8, 190.4 225.9 C 192.6 224.1, 194.5 221.5, 196.8 219.9 C 199.2 218.2, 201.9 217.2, 204.5 215.9 C 207.1 214.6, 209.7 212.2, 212.5 212.1 C 215.4 212.1, 218.8 216.3, 221.7 215.8 C 224.6 215.3, 227.2 209.6, 230.0 209.4 C 232.8 209.2, 235.5 214.0, 238.4 214.6 C 241.3 215.2, 244.6 212.3, 247.3 213.3 C 249.9 214.2, 252.0 218.0, 254.2 220.4 C 256.3 222.8, 256.9 227.7, 260.0 227.7 C 263.0 227.7, 269.7 220.0, 272.6 220.3 C 275.4 220.6, 275.1 227.3, 277.1 229.5 C 279.1 231.7, 282.7 231.5, 284.6 233.5 C 286.5 235.5, 286.2 239.8, 288.4 241.6 C 290.5 243.5, 295.1 243.0, 297.5 244.6 C 300.0 246.2, 301.9 248.6, 303.0 251.2 C 304.1 253.9, 303.5 257.6, 304.1 260.4 C 304.8 263.2, 305.0 265.9, 306.9 268.1 C 308.8 270.4, 313.9 271.6, 315.3 274.1 C 316.7 276.6, 316.6 280.0, 315.3 283.0 C 314.0 286.1, 308.6 289.5, 307.6 292.4 C 306.6 295.2, 308.9 297.4, 309.1 300.0 Z" fill="none" stroke="#7a6f5a" stroke-width="1.4"></path><path d="M 339.7 300.0 C 338.7 303.7, 339.4 307.0, 340.9 310.9 C 342.3 314.8, 348.6 319.8, 348.5 323.6 C 348.3 327.3, 343.4 330.5, 339.9 333.3 C 336.4 336.2, 329.1 337.0, 327.7 340.5 C 326.4 344.0, 333.2 351.2, 331.6 354.3 C 330.0 357.4, 321.4 356.7, 318.2 358.9 C 315.0 361.1, 313.9 364.2, 312.4 367.6 C 311.0 371.1, 311.8 376.8, 309.5 379.5 C 307.3 382.3, 302.6 382.9, 298.9 384.0 C 295.3 385.1, 289.5 382.3, 287.5 386.0 C 285.4 389.7, 289.1 403.1, 286.7 406.0 C 284.3 409.0, 277.4 404.9, 273.0 403.7 C 268.5 402.6, 263.7 398.5, 260.1 399.2 C 256.5 399.9, 254.7 406.8, 251.5 407.9 C 248.2 409.0, 244.0 404.7, 240.4 405.8 C 236.8 407.0, 233.5 414.7, 230.0 414.8 C 226.5 415.0, 223.3 406.8, 219.5 406.7 C 215.7 406.6, 210.8 414.5, 207.3 414.1 C 203.8 413.6, 202.3 404.5, 198.5 403.8 C 194.7 403.2, 188.0 410.8, 184.3 410.2 C 180.7 409.6, 179.0 403.5, 176.4 400.3 C 173.8 397.2, 172.3 393.1, 168.8 391.6 C 165.3 390.0, 157.5 393.9, 155.2 391.2 C 152.9 388.4, 156.5 378.8, 154.9 375.1 C 153.3 371.5, 148.4 371.6, 145.6 369.3 C 142.8 367.0, 141.5 363.6, 138.1 361.4 C 134.7 359.2, 127.1 359.1, 125.0 356.1 C 122.9 353.1, 124.6 347.6, 125.4 343.3 C 126.2 339.0, 129.8 334.1, 129.9 330.4 C 130.1 326.6, 127.9 323.9, 126.1 320.7 C 124.2 317.4, 119.4 314.4, 118.8 311.0 C 118.2 307.5, 122.2 303.6, 122.5 300.0 C 122.7 296.4, 120.7 292.8, 120.3 289.2 C 119.9 285.5, 119.1 281.6, 120.0 278.1 C 120.9 274.6, 123.3 271.3, 125.7 268.4 C 128.1 265.4, 132.3 263.3, 134.3 260.4 C 136.4 257.5, 138.3 255.1, 138.2 250.9 C 138.0 246.7, 132.3 238.9, 133.3 235.4 C 134.3 231.8, 141.2 232.0, 144.0 229.4 C 146.8 226.9, 148.4 223.7, 150.1 220.1 C 151.9 216.5, 150.8 209.1, 154.4 207.9 C 158.0 206.7, 167.8 213.6, 171.7 212.8 C 175.6 211.9, 175.1 204.7, 178.0 202.7 C 180.9 200.8, 185.7 202.4, 189.0 201.1 C 192.4 199.8, 194.6 195.2, 198.1 194.7 C 201.5 194.3, 206.2 198.3, 209.8 198.4 C 213.4 198.5, 216.3 197.6, 219.7 195.2 C 223.0 192.8, 226.3 186.1, 230.0 183.9 C 233.7 181.8, 238.2 179.9, 241.6 182.3 C 245.0 184.7, 246.7 196.8, 250.2 198.4 C 253.7 200.1, 259.2 191.9, 262.7 192.2 C 266.2 192.5, 268.2 198.3, 271.3 200.2 C 274.5 202.1, 278.5 201.9, 281.5 203.7 C 284.5 205.5, 285.9 209.8, 289.6 210.9 C 293.3 212.0, 300.4 208.5, 303.7 210.2 C 307.0 211.9, 307.6 217.3, 309.1 220.9 C 310.6 224.5, 310.2 229.4, 312.8 232.0 C 315.5 234.6, 321.4 234.5, 325.0 236.5 C 328.7 238.5, 332.2 241.0, 334.9 243.9 C 337.5 246.9, 340.8 250.0, 340.9 254.1 C 340.9 258.1, 334.0 264.3, 335.2 268.1 C 336.3 271.9, 345.7 273.2, 347.7 276.6 C 349.6 280.0, 348.2 284.6, 346.9 288.5 C 345.5 292.4, 340.7 296.3, 339.7 300.0 Z" fill="none" stroke="#7a6f5a" stroke-width="0.8"></path><path d="M 368.0 300.0 C 366.2 304.5, 361.3 308.5, 360.1 312.8 C 358.9 317.2, 361.6 321.8, 360.9 326.0 C 360.3 330.3, 355.6 333.4, 356.1 338.3 C 356.6 343.2, 364.1 350.7, 364.0 355.5 C 363.8 360.3, 356.7 362.2, 355.2 366.9 C 353.7 371.6, 358.5 380.4, 355.1 383.6 C 351.6 386.7, 339.1 383.5, 334.3 385.6 C 329.6 387.8, 329.7 393.4, 326.7 396.7 C 323.6 399.9, 320.1 402.9, 316.3 405.1 C 312.4 407.4, 306.2 405.6, 303.5 410.1 C 300.9 414.5, 303.6 428.1, 300.4 431.8 C 297.3 435.4, 289.2 430.4, 284.6 431.8 C 279.9 433.2, 276.9 438.5, 272.5 440.2 C 268.1 441.9, 263.1 442.9, 258.2 441.9 C 253.3 440.9, 247.9 434.3, 243.2 434.3 C 238.5 434.3, 234.4 442.5, 230.0 441.9 C 225.6 441.4, 221.8 431.1, 217.1 431.1 C 212.4 431.1, 206.9 439.8, 201.8 441.9 C 196.7 444.0, 190.7 445.6, 186.4 443.9 C 182.0 442.2, 178.9 435.6, 175.5 431.6 C 172.1 427.7, 169.3 423.2, 165.8 420.2 C 162.2 417.1, 158.5 415.2, 154.3 413.3 C 150.0 411.5, 144.4 411.4, 140.4 409.2 C 136.3 407.0, 132.0 404.3, 129.9 400.1 C 127.9 395.8, 130.7 387.4, 128.3 383.5 C 125.9 379.5, 120.3 378.8, 115.6 376.4 C 110.9 374.1, 103.4 372.9, 100.1 369.4 C 96.8 366.0, 96.4 360.4, 95.6 355.7 C 94.9 350.9, 96.0 345.5, 95.4 340.8 C 94.9 336.1, 93.3 331.9, 92.1 327.4 C 90.9 323.0, 88.1 318.5, 88.2 314.0 C 88.3 309.4, 90.6 304.5, 92.6 300.0 C 94.5 295.5, 98.6 291.5, 99.9 287.2 C 101.2 282.9, 100.8 278.8, 100.6 274.3 C 100.4 269.7, 100.1 265.4, 98.6 260.2 C 97.2 254.9, 91.4 247.6, 91.9 242.8 C 92.4 238.0, 99.2 235.6, 101.5 231.3 C 103.8 227.0, 102.2 220.2, 105.7 216.9 C 109.2 213.7, 119.4 215.5, 122.6 211.9 C 125.9 208.3, 122.0 198.4, 125.2 195.2 C 128.5 192.1, 136.7 193.5, 142.0 192.8 C 147.4 192.1, 154.4 195.3, 157.4 191.3 C 160.4 187.3, 156.5 171.8, 159.9 168.9 C 163.3 166.0, 172.6 173.4, 177.8 173.9 C 182.9 174.3, 186.7 172.4, 191.0 171.4 C 195.3 170.5, 199.4 168.4, 203.8 168.3 C 208.2 168.2, 212.9 171.5, 217.3 170.7 C 221.6 169.9, 225.6 164.4, 230.0 163.3 C 234.4 162.2, 238.5 165.9, 243.4 164.1 C 248.3 162.2, 254.5 153.0, 259.4 152.2 C 264.3 151.4, 268.5 156.6, 272.7 159.3 C 276.9 162.0, 280.6 165.6, 284.6 168.3 C 288.5 171.0, 293.5 171.8, 296.4 175.7 C 299.4 179.7, 298.6 189.1, 302.2 191.9 C 305.9 194.7, 314.7 190.0, 318.3 192.4 C 321.8 194.8, 320.3 203.3, 323.6 206.4 C 326.8 209.6, 334.7 208.4, 337.9 211.4 C 341.1 214.5, 341.1 220.4, 342.8 224.6 C 344.6 228.8, 345.6 233.1, 348.4 236.7 C 351.2 240.3, 357.0 242.5, 359.8 246.2 C 362.6 249.9, 365.2 254.3, 365.5 258.9 C 365.7 263.5, 360.1 269.4, 361.1 273.9 C 362.0 278.5, 370.1 281.7, 371.3 286.1 C 372.4 290.4, 369.9 295.5, 368.0 300.0 Z" fill="none" stroke="#7a6f5a" stroke-width="0.8"></path><path d="M 402.3 300.0 C 402.4 305.5, 400.0 311.3, 397.0 316.4 C 393.9 321.6, 387.2 325.9, 384.0 330.6 C 380.9 335.4, 377.8 339.3, 377.9 344.9 C 378.0 350.5, 385.0 358.5, 384.9 364.2 C 384.8 369.8, 381.6 375.0, 377.2 378.7 C 372.8 382.3, 361.1 380.9, 358.6 385.9 C 356.1 390.9, 365.3 404.4, 362.4 408.6 C 359.4 412.8, 346.6 409.1, 341.2 411.2 C 335.7 413.3, 333.0 417.3, 329.6 421.3 C 326.1 425.3, 324.0 431.1, 320.4 435.3 C 316.9 439.5, 312.4 442.5, 308.3 446.6 C 304.3 450.6, 300.4 455.1, 296.0 459.4 C 291.7 463.8, 287.6 470.1, 282.4 472.6 C 277.1 475.2, 270.9 477.0, 264.7 474.6 C 258.6 472.3, 251.4 461.6, 245.6 458.3 C 239.8 455.0, 235.5 451.6, 230.0 454.6 C 224.5 457.6, 218.5 472.5, 212.6 476.3 C 206.7 480.2, 200.3 478.9, 194.6 477.8 C 188.9 476.7, 183.8 472.5, 178.5 469.7 C 173.3 467.0, 167.9 464.8, 163.1 461.4 C 158.4 458.1, 155.4 451.9, 149.9 449.8 C 144.5 447.7, 133.5 453.9, 130.5 448.9 C 127.4 443.9, 134.2 425.5, 131.6 419.9 C 129.0 414.3, 120.5 417.1, 114.8 415.2 C 109.2 413.3, 100.2 413.3, 97.7 408.5 C 95.3 403.8, 103.2 391.4, 100.1 386.8 C 96.9 382.2, 82.4 384.8, 78.7 380.8 C 75.1 376.9, 78.7 368.6, 78.0 363.0 C 77.3 357.4, 78.5 351.8, 74.4 347.2 C 70.3 342.6, 55.8 340.2, 53.4 335.1 C 51.0 330.0, 57.2 322.6, 60.3 316.7 C 63.3 310.9, 72.0 305.6, 71.6 300.0 C 71.2 294.4, 59.9 288.7, 58.0 283.1 C 56.0 277.4, 55.8 270.8, 59.8 266.1 C 63.7 261.5, 78.2 259.7, 81.7 255.0 C 85.3 250.4, 79.6 243.2, 81.1 238.3 C 82.6 233.4, 88.6 230.4, 90.8 225.6 C 93.0 220.8, 91.1 213.4, 94.2 209.3 C 97.3 205.2, 105.7 204.9, 109.3 201.0 C 112.9 197.1, 113.5 191.0, 115.8 185.8 C 118.2 180.7, 120.1 174.6, 123.5 170.2 C 126.9 165.8, 131.7 162.8, 136.2 159.6 C 140.7 156.4, 146.3 155.5, 150.4 151.2 C 154.6 146.9, 155.5 134.0, 161.2 133.8 C 166.8 133.6, 178.3 148.9, 184.4 149.8 C 190.6 150.7, 193.0 140.1, 198.0 139.1 C 203.0 138.1, 209.3 143.6, 214.6 144.0 C 220.0 144.4, 224.8 141.9, 230.0 141.6 C 235.2 141.3, 240.2 142.6, 245.5 142.2 C 250.9 141.9, 256.8 138.6, 261.9 139.7 C 266.9 140.9, 270.6 147.6, 275.7 149.2 C 280.9 150.8, 287.8 147.0, 292.5 149.1 C 297.3 151.1, 299.2 159.1, 304.2 161.3 C 309.1 163.5, 317.2 160.1, 322.0 162.3 C 326.9 164.4, 327.9 171.9, 333.4 174.0 C 338.8 176.2, 350.5 171.8, 354.8 175.2 C 359.1 178.5, 356.5 188.9, 359.0 194.1 C 361.6 199.3, 365.3 202.8, 370.1 206.4 C 374.8 210.0, 384.2 211.3, 387.4 215.9 C 390.7 220.4, 389.5 227.9, 389.5 233.9 C 389.4 240.0, 385.2 247.0, 387.1 252.3 C 389.0 257.7, 399.6 260.8, 401.1 266.0 C 402.6 271.2, 396.0 278.0, 396.3 283.6 C 396.5 289.3, 402.2 294.5, 402.3 300.0 Z" fill="none" stroke="#7a6f5a" stroke-width="1.4"></path><path d="M 418.2 300.0 C 421.0 306.4, 434.4 314.0, 433.8 320.1 C 433.3 326.2, 416.8 330.4, 414.7 336.7 C 412.6 343.1, 422.0 351.7, 421.0 357.9 C 420.1 364.2, 412.3 368.5, 409.1 374.2 C 405.9 379.8, 402.9 385.0, 401.8 391.8 C 400.7 398.7, 407.5 411.1, 402.5 415.3 C 397.5 419.4, 377.7 412.6, 372.0 416.5 C 366.3 420.4, 371.7 433.0, 368.5 438.5 C 365.3 444.0, 358.5 446.7, 352.7 449.6 C 347.0 452.4, 338.5 450.6, 334.1 455.8 C 329.7 461.0, 331.0 475.5, 326.5 480.6 C 322.1 485.7, 314.4 487.0, 307.3 486.7 C 300.3 486.3, 290.5 476.5, 284.2 478.6 C 277.9 480.7, 275.7 498.6, 269.6 499.2 C 263.6 499.9, 254.6 483.5, 248.0 482.7 C 241.4 481.9, 236.3 491.1, 230.0 494.5 C 223.7 497.9, 215.9 505.7, 210.0 503.1 C 204.1 500.5, 200.4 482.0, 194.4 478.9 C 188.4 475.8, 180.2 485.2, 174.0 484.5 C 167.9 483.8, 162.4 479.1, 157.6 474.8 C 152.7 470.6, 150.9 461.2, 145.0 459.0 C 139.1 456.8, 129.3 462.0, 122.0 461.7 C 114.7 461.3, 105.6 461.5, 101.2 457.0 C 96.8 452.4, 97.3 441.6, 95.4 434.6 C 93.5 427.6, 94.6 419.3, 89.9 415.0 C 85.2 410.7, 72.3 412.7, 67.1 408.8 C 61.9 404.9, 62.0 397.1, 58.7 391.6 C 55.4 386.0, 47.8 382.1, 47.5 375.6 C 47.2 369.1, 60.0 358.4, 56.9 352.5 C 53.9 346.6, 32.3 345.6, 29.0 340.0 C 25.7 334.4, 37.4 325.7, 37.2 319.0 C 37.0 312.3, 29.5 306.5, 27.7 300.0 C 25.9 293.5, 22.8 285.9, 26.6 280.0 C 30.5 274.0, 50.3 271.2, 50.6 264.3 C 50.9 257.5, 30.2 246.0, 28.5 238.9 C 26.7 231.7, 37.5 227.7, 40.3 221.4 C 43.1 215.1, 39.6 205.5, 45.2 201.2 C 50.9 197.0, 67.8 199.4, 74.1 195.8 C 80.4 192.2, 80.0 184.9, 83.3 179.6 C 86.6 174.3, 91.5 170.8, 93.9 163.9 C 96.3 157.1, 93.6 144.0, 97.6 138.6 C 101.6 133.3, 112.0 135.7, 117.8 132.1 C 123.5 128.4, 125.8 118.8, 132.2 117.0 C 138.5 115.2, 149.0 121.6, 156.0 121.4 C 163.0 121.2, 168.5 119.7, 174.2 115.9 C 179.8 112.2, 183.7 98.9, 190.0 98.8 C 196.3 98.7, 205.1 115.9, 211.8 115.2 C 218.5 114.6, 223.7 96.8, 230.0 94.7 C 236.3 92.6, 243.0 101.0, 249.4 102.7 C 255.9 104.4, 262.8 102.6, 268.8 105.0 C 274.8 107.4, 279.2 115.4, 285.5 117.1 C 291.8 118.8, 301.4 111.6, 306.6 115.1 C 311.7 118.7, 311.1 134.6, 316.4 138.4 C 321.6 142.3, 332.0 136.2, 338.0 138.4 C 343.9 140.6, 348.4 146.0, 352.0 151.4 C 355.5 156.7, 354.5 166.5, 359.5 170.5 C 364.5 174.5, 377.5 171.1, 382.0 175.3 C 386.4 179.5, 385.0 189.0, 386.2 195.7 C 387.3 202.3, 382.7 211.0, 389.1 214.9 C 395.6 218.9, 419.6 214.7, 424.9 219.3 C 430.3 223.8, 423.0 234.6, 421.2 242.0 C 419.5 249.3, 415.2 256.7, 414.5 263.3 C 413.8 269.9, 416.3 275.5, 417.0 281.6 C 417.6 287.7, 415.4 293.6, 418.2 300.0 Z" fill="none" stroke="#7a6f5a" stroke-width="0.8"></path><path d="M 470.1 300.0 C 469.5 307.1, 445.7 313.5, 443.6 321.0 C 441.6 328.6, 456.6 337.7, 457.5 345.3 C 458.4 352.8, 452.9 359.9, 448.9 366.4 C 444.9 372.9, 435.3 376.8, 433.5 384.3 C 431.7 391.8, 443.2 406.0, 438.3 411.4 C 433.4 416.7, 411.7 412.6, 404.1 416.4 C 396.6 420.1, 397.7 428.8, 393.0 433.8 C 388.3 438.7, 378.6 438.3, 376.0 446.0 C 373.5 453.7, 380.1 471.4, 377.7 480.0 C 375.3 488.5, 368.4 493.5, 361.8 497.2 C 355.2 501.0, 347.0 503.5, 338.2 502.4 C 329.4 501.3, 317.0 491.4, 309.0 490.6 C 300.9 489.9, 296.3 494.8, 290.0 497.8 C 283.8 500.8, 277.9 505.6, 271.5 508.5 C 265.0 511.5, 258.1 510.0, 251.2 515.6 C 244.3 521.1, 236.9 543.5, 230.0 541.9 C 223.1 540.2, 216.5 512.1, 209.8 505.6 C 203.0 499.1, 196.6 503.0, 189.6 502.9 C 182.6 502.8, 175.5 504.0, 167.8 505.0 C 160.1 506.0, 150.9 509.8, 143.4 509.1 C 135.8 508.5, 127.6 506.8, 122.5 501.1 C 117.5 495.4, 118.0 480.7, 113.1 474.9 C 108.3 469.1, 100.3 469.2, 93.5 466.3 C 86.7 463.5, 76.5 463.3, 72.3 457.7 C 68.0 452.2, 72.9 438.4, 68.1 432.8 C 63.4 427.3, 47.4 430.2, 43.9 424.3 C 40.4 418.5, 51.2 403.9, 47.3 397.6 C 43.5 391.4, 27.4 391.7, 20.9 386.6 C 14.5 381.5, 11.5 374.1, 8.6 367.2 C 5.7 360.2, 6.4 352.3, 3.5 345.1 C 0.6 337.8, -10.5 331.0, -8.9 323.5 C -7.4 316.0, 12.6 307.8, 13.0 300.0 C 13.4 292.2, -5.2 284.2, -6.6 276.7 C -8.0 269.2, 1.9 262.4, 4.5 255.1 C 7.0 247.8, 2.9 238.5, 8.6 232.8 C 14.4 227.1, 33.2 226.3, 39.1 220.9 C 45.0 215.6, 42.5 207.6, 44.1 200.7 C 45.8 193.7, 46.9 186.2, 49.0 179.0 C 51.0 171.9, 54.0 165.1, 56.7 157.8 C 59.4 150.5, 60.2 140.6, 65.1 135.1 C 69.9 129.5, 80.2 129.4, 86.0 124.6 C 91.9 119.7, 95.1 111.8, 100.2 105.7 C 105.2 99.5, 110.0 91.9, 116.5 87.7 C 123.0 83.4, 130.3 78.8, 138.9 80.0 C 147.4 81.2, 159.5 93.0, 167.8 94.9 C 176.1 96.9, 182.0 95.7, 188.6 91.7 C 195.2 87.7, 200.5 72.3, 207.4 70.9 C 214.3 69.5, 222.4 84.0, 230.0 83.3 C 237.6 82.6, 245.9 66.1, 253.0 66.5 C 260.1 66.9, 265.8 82.1, 272.6 85.9 C 279.4 89.7, 287.2 86.9, 293.9 89.5 C 300.5 92.1, 305.9 98.2, 312.3 101.3 C 318.7 104.5, 324.0 108.4, 332.4 108.4 C 340.8 108.4, 354.5 100.2, 362.9 101.2 C 371.2 102.2, 380.2 105.5, 382.3 114.4 C 384.5 123.2, 373.1 146.3, 375.8 154.2 C 378.4 162.2, 392.2 157.9, 398.1 162.1 C 403.9 166.3, 404.1 174.8, 410.7 179.2 C 417.4 183.7, 430.9 184.1, 437.9 188.9 C 445.0 193.6, 450.4 200.4, 453.0 207.6 C 455.5 214.9, 455.5 223.8, 453.3 232.3 C 451.0 240.7, 440.4 250.6, 439.5 258.3 C 438.5 266.1, 442.3 271.6, 447.4 278.6 C 452.5 285.5, 470.7 292.9, 470.1 300.0 Z" fill="none" stroke="#7a6f5a" stroke-width="0.8"></path><path d="M 688.3 640.0 C 688.2 641.0, 689.4 642.0, 689.3 642.9 C 689.2 643.8, 688.3 644.7, 687.7 645.5 C 687.2 646.3, 686.0 646.9, 685.9 647.9 C 685.8 648.8, 687.2 650.3, 687.2 651.2 C 687.1 652.2, 686.1 652.9, 685.7 653.7 C 685.2 654.6, 685.1 655.6, 684.5 656.4 C 684.0 657.2, 683.2 657.8, 682.5 658.5 C 681.8 659.1, 681.1 659.8, 680.4 660.4 C 679.6 661.0, 679.0 661.8, 678.0 662.0 C 677.0 662.2, 675.1 660.9, 674.4 661.6 C 673.7 662.2, 674.3 664.8, 673.8 665.8 C 673.3 666.9, 672.6 668.0, 671.6 667.9 C 670.5 667.8, 668.6 665.2, 667.6 665.1 C 666.6 665.0, 666.3 666.9, 665.4 667.3 C 664.6 667.7, 663.6 667.6, 662.7 667.6 C 661.8 667.6, 660.9 667.7, 660.0 667.5 C 659.1 667.2, 658.3 666.4, 657.4 666.3 C 656.5 666.2, 655.5 666.9, 654.7 666.8 C 653.8 666.8, 653.0 666.1, 652.2 665.7 C 651.4 665.4, 650.5 665.2, 649.7 664.8 C 648.9 664.4, 648.2 663.8, 647.5 663.4 C 646.8 662.9, 646.0 662.5, 645.3 662.0 C 644.6 661.5, 643.9 661.0, 643.2 660.5 C 642.4 660.0, 641.7 659.5, 640.9 659.1 C 640.1 658.6, 639.0 658.4, 638.4 657.7 C 637.8 657.1, 637.6 656.1, 637.3 655.2 C 637.1 654.3, 637.5 653.1, 636.9 652.4 C 636.2 651.7, 633.7 651.8, 633.4 651.0 C 633.0 650.3, 634.4 648.7, 634.6 647.7 C 634.8 646.7, 634.6 645.9, 634.4 645.1 C 634.3 644.2, 633.7 643.4, 633.6 642.6 C 633.5 641.7, 634.1 640.9, 633.8 640.0 C 633.5 639.1, 631.8 638.1, 631.7 637.2 C 631.6 636.3, 633.1 635.6, 633.3 634.7 C 633.5 633.8, 632.7 632.6, 633.2 631.9 C 633.6 631.1, 635.6 630.9, 635.9 630.0 C 636.2 629.1, 635.0 627.7, 634.9 626.6 C 634.8 625.5, 635.1 624.5, 635.5 623.6 C 635.8 622.7, 635.9 621.5, 636.8 620.9 C 637.6 620.4, 639.6 620.9, 640.5 620.5 C 641.4 620.1, 641.6 619.1, 642.2 618.4 C 642.8 617.6, 643.2 616.5, 644.1 616.2 C 645.0 616.0, 646.8 617.3, 647.5 616.7 C 648.3 616.1, 647.9 613.0, 648.6 612.4 C 649.3 611.8, 650.8 612.9, 651.8 613.1 C 652.9 613.3, 653.9 613.8, 654.8 613.6 C 655.7 613.5, 656.4 612.2, 657.3 612.2 C 658.1 612.3, 659.1 613.7, 660.0 613.9 C 660.9 614.2, 661.6 614.1, 662.6 613.8 C 663.5 613.5, 664.6 612.1, 665.6 611.9 C 666.5 611.7, 667.6 612.0, 668.3 612.5 C 669.1 613.1, 669.3 615.1, 670.2 615.4 C 671.1 615.7, 672.8 614.1, 673.8 614.2 C 674.8 614.3, 675.3 615.4, 676.1 615.9 C 676.9 616.4, 678.3 616.3, 678.8 617.1 C 679.4 617.9, 678.8 619.9, 679.3 620.7 C 679.9 621.4, 681.5 621.2, 682.2 621.8 C 682.9 622.4, 683.0 623.5, 683.6 624.3 C 684.1 625.0, 685.0 625.5, 685.7 626.3 C 686.4 627.0, 687.2 627.7, 687.6 628.6 C 687.9 629.5, 687.8 630.6, 687.7 631.6 C 687.7 632.6, 686.7 633.7, 687.0 634.6 C 687.3 635.5, 689.3 636.2, 689.5 637.1 C 689.7 638.0, 688.3 639.0, 688.3 640.0 Z" fill="none" stroke="#7a6f5a" stroke-width="0.8"></path><path d="M 718.0 640.0 C 718.9 641.8, 717.4 643.7, 717.6 645.7 C 717.8 647.6, 720.5 650.2, 719.1 651.8 C 717.8 653.3, 711.1 653.6, 709.3 655.0 C 707.6 656.3, 708.2 658.0, 708.4 660.0 C 708.6 662.0, 710.2 664.7, 710.5 667.0 C 710.8 669.2, 710.8 671.6, 710.1 673.5 C 709.5 675.4, 708.6 677.5, 706.6 678.3 C 704.6 679.0, 700.4 677.8, 698.1 678.1 C 695.8 678.4, 693.9 678.5, 693.0 680.2 C 692.1 682.0, 693.8 687.5, 692.5 688.7 C 691.3 689.9, 687.2 686.9, 685.5 687.6 C 683.7 688.4, 683.3 691.5, 682.0 693.1 C 680.6 694.7, 679.3 697.5, 677.3 697.2 C 675.4 696.9, 672.2 692.0, 670.2 691.4 C 668.2 690.7, 666.9 691.9, 665.2 693.2 C 663.5 694.4, 661.7 698.8, 660.0 698.7 C 658.3 698.6, 656.5 693.7, 654.8 692.5 C 653.1 691.3, 651.7 690.9, 649.7 691.6 C 647.7 692.3, 644.9 696.1, 642.8 696.5 C 640.8 697.0, 639.3 695.1, 637.5 694.3 C 635.8 693.5, 633.7 693.1, 632.3 691.8 C 630.9 690.5, 630.4 687.7, 629.0 686.3 C 627.7 685.0, 625.9 684.5, 624.3 683.5 C 622.6 682.6, 620.1 682.4, 619.3 680.7 C 618.5 679.0, 620.8 674.6, 619.5 673.2 C 618.3 671.8, 612.7 673.6, 611.7 672.3 C 610.7 670.9, 613.4 667.0, 613.3 665.0 C 613.2 662.9, 612.9 661.5, 611.3 660.2 C 609.7 658.9, 605.0 658.6, 603.7 657.1 C 602.4 655.6, 602.8 653.2, 603.6 651.2 C 604.4 649.2, 608.2 646.9, 608.7 645.1 C 609.2 643.2, 607.6 641.8, 606.7 640.0 C 605.7 638.2, 602.9 636.1, 603.2 634.4 C 603.5 632.7, 607.6 631.4, 608.4 629.7 C 609.2 628.0, 608.0 626.1, 608.0 624.2 C 608.1 622.4, 608.9 620.9, 608.8 618.8 C 608.7 616.8, 606.7 613.6, 607.4 611.9 C 608.1 610.2, 611.5 609.9, 613.0 608.6 C 614.6 607.4, 615.7 606.0, 616.6 604.4 C 617.6 602.7, 617.3 599.8, 618.7 598.7 C 620.2 597.6, 623.5 598.4, 625.3 597.7 C 627.2 597.1, 628.3 595.7, 629.9 595.0 C 631.6 594.3, 633.5 594.2, 635.2 593.6 C 636.9 593.0, 638.3 592.2, 639.9 591.4 C 641.4 590.7, 643.0 590.1, 644.6 589.2 C 646.1 588.3, 647.6 586.4, 649.3 586.0 C 650.9 585.5, 652.9 586.8, 654.7 586.3 C 656.5 585.8, 658.3 582.8, 660.0 583.2 C 661.7 583.6, 663.3 588.0, 665.1 588.7 C 666.8 589.4, 668.4 588.5, 670.4 587.5 C 672.5 586.5, 675.7 582.3, 677.4 582.6 C 679.2 582.9, 679.5 588.0, 680.9 589.5 C 682.4 590.9, 684.2 590.9, 686.0 591.4 C 687.8 591.8, 690.0 591.8, 691.9 592.3 C 693.8 592.7, 696.7 592.5, 697.7 594.1 C 698.6 595.8, 697.3 600.1, 697.8 602.2 C 698.3 604.3, 698.8 605.8, 700.8 606.5 C 702.9 607.2, 709.2 605.1, 710.1 606.5 C 711.0 608.0, 705.4 613.5, 706.1 615.4 C 706.8 617.2, 713.8 615.9, 714.4 617.5 C 715.1 619.0, 709.9 622.9, 709.9 624.9 C 709.9 626.8, 713.8 627.6, 714.2 629.2 C 714.6 630.9, 711.7 633.1, 712.3 634.8 C 712.9 636.6, 717.1 638.2, 718.0 640.0 Z" fill="none" stroke="#7a6f5a" stroke-width="0.8"></path><path d="M 745.1 640.0 C 744.4 642.9, 746.1 645.7, 745.5 648.4 C 744.9 651.1, 741.4 653.3, 741.5 656.2 C 741.5 659.1, 747.1 663.7, 745.8 666.0 C 744.5 668.4, 736.1 668.5, 733.5 670.4 C 730.9 672.4, 730.9 674.9, 730.4 677.6 C 729.8 680.3, 731.0 684.3, 730.0 686.7 C 728.9 689.2, 725.3 690.0, 724.0 692.6 C 722.8 695.1, 723.7 699.7, 722.3 702.3 C 720.8 704.8, 717.8 705.9, 715.5 707.7 C 713.3 709.5, 711.3 711.7, 708.9 713.2 C 706.4 714.6, 704.0 716.5, 700.8 716.4 C 697.7 716.3, 692.7 711.4, 690.1 712.6 C 687.5 713.8, 687.7 722.2, 685.3 723.4 C 682.9 724.5, 678.5 718.4, 675.8 719.4 C 673.1 720.4, 671.4 728.3, 668.8 729.4 C 666.2 730.4, 662.9 725.8, 660.0 725.8 C 657.1 725.9, 654.0 730.0, 651.2 729.8 C 648.3 729.7, 646.0 725.4, 643.1 724.7 C 640.3 724.1, 636.2 727.7, 633.9 725.9 C 631.7 724.1, 632.0 715.2, 629.5 713.7 C 627.0 712.2, 620.9 718.6, 618.8 717.1 C 616.7 715.6, 618.7 706.8, 616.9 704.5 C 615.1 702.2, 610.9 704.0, 608.0 703.3 C 605.2 702.6, 601.7 702.1, 599.8 700.2 C 598.0 698.3, 599.0 693.7, 596.7 691.9 C 594.4 690.1, 588.0 691.4, 586.1 689.4 C 584.2 687.4, 585.3 683.1, 585.1 680.0 C 584.9 677.0, 585.2 673.9, 585.0 671.1 C 584.8 668.2, 584.5 665.6, 584.0 663.0 C 583.6 660.4, 583.2 658.0, 582.4 655.4 C 581.5 652.9, 580.5 650.5, 579.1 648.0 C 577.7 645.4, 575.0 642.7, 574.1 640.0 C 573.2 637.3, 573.6 634.3, 573.6 631.5 C 573.6 628.6, 573.5 625.7, 574.0 622.9 C 574.5 620.1, 575.6 617.4, 576.6 614.7 C 577.6 612.0, 577.7 608.9, 580.0 606.9 C 582.3 604.9, 589.2 605.4, 590.3 602.7 C 591.3 600.0, 585.4 593.3, 586.2 590.7 C 587.0 588.0, 593.1 588.8, 595.0 586.7 C 596.9 584.5, 595.7 579.6, 597.8 577.8 C 599.8 576.0, 604.9 577.3, 607.4 575.9 C 609.9 574.5, 610.3 570.5, 612.8 569.4 C 615.3 568.4, 620.2 571.5, 622.4 569.7 C 624.6 567.8, 623.8 559.4, 626.1 558.2 C 628.4 556.9, 633.6 562.8, 636.4 562.3 C 639.3 561.7, 640.5 556.0, 643.1 554.9 C 645.6 553.9, 648.9 554.8, 651.7 555.9 C 654.5 557.0, 657.2 561.9, 660.0 561.4 C 662.8 560.8, 665.7 554.2, 668.6 552.7 C 671.5 551.1, 674.9 550.7, 677.5 552.0 C 680.1 553.4, 681.3 559.8, 684.0 560.9 C 686.7 561.9, 691.3 557.4, 693.8 558.4 C 696.3 559.4, 696.8 565.1, 699.1 566.8 C 701.4 568.6, 705.6 567.0, 707.6 568.8 C 709.6 570.6, 709.3 575.6, 711.2 577.6 C 713.1 579.7, 717.2 579.1, 718.9 581.1 C 720.6 583.1, 719.7 587.5, 721.5 589.5 C 723.3 591.6, 727.8 591.5, 729.7 593.4 C 731.6 595.3, 731.8 598.5, 733.0 601.0 C 734.3 603.4, 735.1 605.9, 737.2 608.0 C 739.4 610.2, 744.7 611.4, 746.1 613.9 C 747.5 616.4, 744.9 620.1, 745.5 623.0 C 746.0 625.9, 749.4 628.4, 749.4 631.2 C 749.3 634.0, 745.7 637.1, 745.1 640.0 Z" fill="none" stroke="#7a6f5a" stroke-width="1.4"></path><path d="M 763.6 640.0 C 763.4 643.9, 775.0 647.6, 777.4 651.6 C 779.8 655.5, 780.8 660.3, 778.2 663.5 C 775.6 666.7, 765.1 668.0, 761.7 670.8 C 758.2 673.6, 759.0 677.3, 757.3 680.3 C 755.5 683.3, 751.1 684.6, 751.1 688.7 C 751.1 692.8, 759.3 702.3, 757.5 705.1 C 755.6 708.0, 743.1 703.4, 740.0 705.6 C 736.9 707.9, 740.7 715.8, 738.8 718.8 C 736.9 721.8, 730.7 720.2, 728.7 723.7 C 726.7 727.2, 729.0 736.6, 726.7 739.8 C 724.4 743.0, 719.4 743.3, 715.0 742.8 C 710.5 742.3, 704.0 736.6, 700.1 736.8 C 696.2 737.0, 694.7 742.5, 691.6 744.1 C 688.4 745.6, 684.5 744.6, 681.1 746.2 C 677.7 747.7, 674.7 752.5, 671.2 753.6 C 667.7 754.7, 663.7 753.2, 660.0 752.8 C 656.3 752.4, 652.6 752.4, 649.0 751.2 C 645.5 750.1, 642.1 747.9, 638.9 746.0 C 635.7 744.0, 633.8 739.1, 629.8 739.4 C 625.9 739.7, 619.1 748.0, 615.3 747.9 C 611.5 747.8, 609.8 741.8, 607.3 738.7 C 604.8 735.6, 603.5 731.2, 600.4 729.3 C 597.2 727.3, 592.1 728.5, 588.5 727.2 C 584.8 725.9, 581.2 724.0, 578.6 721.4 C 576.0 718.8, 574.1 715.2, 572.8 711.5 C 571.5 707.9, 572.1 703.1, 570.8 699.6 C 569.6 696.1, 567.3 693.6, 565.2 690.7 C 563.2 687.7, 560.0 685.2, 558.6 682.0 C 557.3 678.7, 558.8 674.5, 557.0 671.2 C 555.2 668.0, 548.4 665.8, 548.1 662.3 C 547.7 658.8, 553.5 654.1, 554.9 650.4 C 556.3 646.6, 556.7 643.5, 556.5 640.0 C 556.3 636.5, 554.1 633.0, 553.7 629.5 C 553.3 626.0, 555.6 623.0, 554.2 618.9 C 552.7 614.9, 544.4 608.7, 544.9 605.1 C 545.5 601.5, 553.9 600.1, 557.5 597.5 C 561.1 595.0, 564.7 593.2, 566.3 589.9 C 568.0 586.7, 566.6 581.9, 567.2 578.0 C 567.9 574.1, 567.6 568.8, 570.3 566.4 C 573.0 564.0, 581.5 567.0, 583.7 563.7 C 585.9 560.4, 581.0 549.4, 583.4 546.7 C 585.8 543.9, 594.7 549.4, 598.0 547.2 C 601.3 545.0, 600.4 536.6, 603.2 533.6 C 605.9 530.7, 609.9 528.7, 614.3 529.6 C 618.7 530.6, 625.6 539.9, 629.5 539.4 C 633.3 538.9, 634.2 528.8, 637.4 526.5 C 640.6 524.1, 645.0 523.9, 648.7 525.4 C 652.5 527.0, 656.2 536.5, 660.0 535.9 C 663.8 535.3, 667.9 523.2, 671.7 521.7 C 675.4 520.2, 678.8 525.8, 682.5 527.0 C 686.1 528.2, 689.8 528.6, 693.7 529.0 C 697.5 529.5, 702.7 527.2, 705.7 529.6 C 708.7 532.1, 708.7 540.8, 711.5 543.6 C 714.3 546.4, 719.7 544.3, 722.4 546.6 C 725.2 548.8, 726.0 554.0, 727.9 557.3 C 729.9 560.5, 730.2 564.6, 734.1 565.9 C 738.1 567.1, 749.3 562.3, 751.8 564.7 C 754.2 567.1, 748.2 576.6, 749.0 580.5 C 749.8 584.5, 754.8 585.4, 756.4 588.5 C 758.0 591.6, 757.1 595.9, 758.4 599.2 C 759.8 602.5, 762.4 605.2, 764.3 608.4 C 766.2 611.5, 767.7 614.8, 770.1 618.1 C 772.5 621.4, 779.8 624.7, 778.7 628.3 C 777.6 632.0, 763.9 636.1, 763.6 640.0 Z" fill="none" stroke="#7a6f5a" stroke-width="0.8"></path><path d="M 810.4 640.0 C 808.3 644.4, 790.8 648.2, 788.4 652.6 C 785.9 657.1, 794.4 662.2, 795.5 666.9 C 796.6 671.7, 796.8 676.8, 794.9 680.9 C 793.0 685.0, 787.2 687.9, 784.2 691.4 C 781.1 695.0, 777.9 697.9, 776.5 702.3 C 775.2 706.6, 776.9 712.7, 776.0 717.5 C 775.0 722.3, 773.7 727.4, 770.9 731.0 C 768.1 734.7, 763.7 737.3, 759.3 739.3 C 754.8 741.2, 747.7 739.5, 744.4 742.8 C 741.1 746.1, 741.9 754.2, 739.6 759.1 C 737.3 764.0, 735.6 771.8, 730.6 772.1 C 725.7 772.4, 714.9 760.1, 710.1 760.8 C 705.2 761.6, 705.0 772.8, 701.5 776.7 C 697.9 780.7, 693.3 783.8, 688.8 784.6 C 684.2 785.4, 678.7 784.1, 673.9 781.6 C 669.2 779.0, 664.7 769.4, 660.0 769.4 C 655.3 769.5, 650.3 781.8, 646.0 781.8 C 641.8 781.7, 638.5 771.5, 634.3 769.3 C 630.1 767.2, 625.8 768.1, 620.9 768.8 C 616.0 769.4, 608.6 775.4, 604.8 773.3 C 601.0 771.1, 602.3 758.0, 598.1 755.9 C 593.8 753.8, 583.7 762.1, 579.3 760.8 C 574.8 759.5, 575.5 750.5, 571.3 748.1 C 567.1 745.6, 558.2 748.5, 553.8 746.2 C 549.5 743.9, 546.7 739.1, 545.2 734.2 C 543.7 729.3, 544.9 722.4, 544.9 716.9 C 544.9 711.4, 546.1 705.9, 545.1 701.4 C 544.1 697.0, 543.6 693.2, 538.9 690.2 C 534.2 687.2, 521.1 686.9, 517.0 683.4 C 512.9 679.8, 515.1 673.8, 514.5 668.9 C 513.9 664.1, 512.1 659.3, 513.5 654.4 C 514.8 649.6, 522.5 644.8, 522.6 640.0 C 522.8 635.2, 514.1 630.2, 514.3 625.6 C 514.4 621.1, 520.7 617.0, 523.6 612.9 C 526.5 608.8, 529.7 605.1, 531.8 601.1 C 533.9 597.1, 535.3 593.2, 536.3 588.8 C 537.4 584.4, 538.0 580.0, 538.0 574.8 C 538.0 569.6, 534.5 561.7, 536.5 557.5 C 538.5 553.3, 544.9 551.4, 549.9 549.7 C 554.9 547.9, 563.8 550.4, 566.7 546.7 C 569.7 543.0, 564.7 530.8, 567.6 527.4 C 570.5 524.0, 578.9 526.7, 584.1 526.4 C 589.4 526.2, 595.0 527.8, 599.1 526.0 C 603.2 524.3, 605.5 520.3, 608.5 515.6 C 611.5 511.0, 612.9 500.3, 617.0 498.2 C 621.0 496.1, 628.0 504.0, 632.8 503.2 C 637.5 502.4, 641.0 494.3, 645.6 493.5 C 650.1 492.7, 655.1 498.8, 660.0 498.4 C 664.9 498.0, 669.9 491.5, 674.7 491.0 C 679.5 490.4, 684.1 493.9, 688.8 495.0 C 693.6 496.1, 698.6 496.1, 703.2 497.7 C 707.7 499.2, 711.9 502.0, 716.2 504.3 C 720.5 506.6, 725.8 507.2, 728.8 511.2 C 731.9 515.3, 731.1 525.2, 734.4 528.6 C 737.8 532.0, 743.6 530.8, 748.9 531.6 C 754.3 532.4, 764.9 528.9, 766.7 533.3 C 768.5 537.7, 758.3 553.2, 759.8 558.1 C 761.3 563.0, 770.3 560.8, 775.7 562.7 C 781.0 564.6, 789.1 565.8, 791.9 569.5 C 794.8 573.2, 793.8 579.6, 792.6 585.1 C 791.5 590.5, 785.9 597.2, 784.8 602.1 C 783.8 607.1, 783.7 610.9, 786.4 614.9 C 789.1 618.8, 797.1 621.9, 801.1 626.1 C 805.1 630.3, 812.5 635.6, 810.4 640.0 Z" fill="none" stroke="#7a6f5a" stroke-width="0.8"></path><path d="M 835.3 640.0 C 838.0 645.3, 833.9 651.6, 830.8 656.8 C 827.7 662.0, 816.2 665.2, 816.6 671.1 C 816.9 677.1, 834.0 687.3, 832.7 692.4 C 831.4 697.5, 811.1 696.2, 808.6 701.6 C 806.2 706.9, 820.9 720.1, 817.8 724.4 C 814.7 728.6, 795.7 724.0, 790.1 726.9 C 784.5 729.8, 787.1 737.6, 784.1 741.8 C 781.1 746.0, 775.1 747.5, 772.2 752.2 C 769.3 756.9, 771.1 767.3, 766.7 770.1 C 762.4 772.8, 751.0 766.4, 746.0 768.8 C 741.1 771.2, 740.5 779.2, 737.2 784.4 C 733.9 789.6, 731.7 799.4, 726.3 800.1 C 721.0 800.8, 710.3 786.0, 705.0 788.5 C 699.8 790.9, 699.8 813.9, 694.8 815.0 C 689.8 816.1, 681.1 795.5, 675.3 795.1 C 669.5 794.7, 665.2 811.8, 660.0 812.5 C 654.8 813.2, 650.2 798.6, 644.3 799.4 C 638.4 800.2, 630.1 817.7, 624.7 817.4 C 619.4 817.1, 617.5 800.1, 612.3 797.4 C 607.1 794.6, 599.5 800.6, 593.4 800.7 C 587.3 800.8, 580.2 801.2, 575.6 797.8 C 571.1 794.5, 570.8 784.0, 566.1 780.5 C 561.4 777.0, 550.9 781.4, 547.6 777.0 C 544.2 772.6, 549.1 758.9, 545.9 754.1 C 542.7 749.3, 534.3 750.4, 528.2 748.2 C 522.1 745.9, 511.8 745.7, 509.3 740.7 C 506.9 735.7, 516.2 723.6, 513.6 718.3 C 510.9 713.0, 496.3 713.8, 493.6 708.9 C 490.8 704.1, 498.4 695.1, 497.1 689.4 C 495.9 683.7, 484.6 680.3, 486.0 674.6 C 487.4 668.9, 502.2 661.0, 505.4 655.2 C 508.5 649.5, 508.7 645.5, 504.6 640.0 C 500.6 634.5, 481.6 627.6, 481.1 622.4 C 480.7 617.1, 500.0 614.1, 501.9 608.6 C 503.8 603.0, 490.6 594.0, 492.7 589.2 C 494.8 584.5, 509.5 583.5, 514.6 579.8 C 519.7 576.1, 521.1 571.6, 523.3 566.9 C 525.5 562.2, 527.5 557.9, 527.7 551.6 C 527.9 545.2, 523.1 534.7, 524.5 528.8 C 526.0 522.9, 532.1 520.2, 536.4 516.4 C 540.6 512.6, 544.7 508.2, 550.1 506.1 C 555.5 503.9, 564.6 507.5, 568.9 503.7 C 573.2 499.8, 571.9 487.0, 576.0 482.8 C 580.0 478.7, 587.0 478.2, 593.2 478.7 C 599.4 479.1, 607.7 487.3, 613.1 485.4 C 618.5 483.5, 620.6 470.2, 625.6 467.1 C 630.6 463.9, 637.2 467.5, 642.9 466.4 C 648.6 465.3, 654.2 461.7, 660.0 460.7 C 665.8 459.7, 672.6 456.4, 677.7 460.6 C 682.8 464.8, 685.1 483.9, 690.6 486.0 C 696.1 488.1, 704.6 474.2, 710.7 473.0 C 716.7 471.8, 722.6 474.5, 726.8 478.8 C 730.9 483.0, 732.1 493.6, 735.6 498.5 C 739.2 503.4, 742.7 506.6, 748.1 508.2 C 753.4 509.9, 762.7 506.4, 768.0 508.4 C 773.2 510.5, 775.7 516.5, 779.5 520.5 C 783.3 524.5, 786.1 529.2, 790.9 532.6 C 795.7 536.0, 805.7 536.1, 808.4 540.8 C 811.1 545.6, 806.8 555.2, 807.3 561.2 C 807.9 567.3, 811.4 571.6, 811.8 577.1 C 812.3 582.6, 808.3 589.4, 810.1 594.5 C 811.9 599.6, 821.9 602.6, 822.6 607.7 C 823.3 612.7, 812.0 619.4, 814.1 624.8 C 816.2 630.2, 832.5 634.7, 835.3 640.0 Z" fill="none" stroke="#7a6f5a" stroke-width="1.4"></path><path d="M 858.6 640.0 C 862.8 646.3, 863.8 653.4, 864.9 660.2 C 865.9 667.0, 866.1 674.1, 864.7 680.7 C 863.4 687.3, 862.6 694.8, 856.6 699.6 C 850.6 704.5, 832.7 704.5, 828.6 709.8 C 824.5 715.2, 834.3 726.4, 831.9 731.9 C 829.5 737.4, 817.0 737.2, 814.0 742.9 C 811.0 748.6, 817.9 761.8, 813.9 766.3 C 809.9 770.8, 796.2 767.4, 789.8 769.8 C 783.5 772.3, 778.2 774.0, 775.7 780.9 C 773.1 787.8, 779.0 807.2, 774.5 811.3 C 770.0 815.5, 754.3 802.0, 748.6 805.8 C 742.9 809.5, 746.1 832.0, 740.3 833.9 C 734.5 835.7, 720.9 818.4, 713.7 817.1 C 706.5 815.8, 702.9 824.5, 697.0 825.9 C 691.1 827.4, 684.5 826.8, 678.3 825.9 C 672.1 825.0, 666.3 818.1, 660.0 820.5 C 653.7 823.0, 646.4 839.8, 640.2 840.6 C 634.1 841.4, 629.8 825.9, 623.2 825.3 C 616.5 824.6, 607.3 835.9, 600.3 836.7 C 593.3 837.5, 586.9 833.7, 581.3 830.1 C 575.7 826.4, 573.1 817.0, 566.7 814.5 C 560.3 812.0, 546.9 820.5, 543.1 815.0 C 539.2 809.6, 547.1 788.1, 543.5 781.9 C 540.0 775.8, 529.2 779.9, 521.7 778.3 C 514.3 776.6, 505.1 775.7, 498.9 772.2 C 492.7 768.7, 486.3 764.0, 484.5 757.3 C 482.7 750.5, 486.8 739.8, 488.2 731.8 C 489.6 723.8, 497.2 714.5, 492.8 709.2 C 488.4 704.0, 468.1 704.9, 461.8 700.1 C 455.5 695.4, 456.0 687.4, 455.2 680.7 C 454.4 674.1, 453.7 666.8, 457.0 660.0 C 460.4 653.2, 472.5 646.4, 475.2 640.0 C 477.8 633.6, 474.3 628.0, 473.0 621.6 C 471.7 615.2, 466.3 607.7, 467.4 601.7 C 468.5 595.6, 479.5 592.1, 479.6 585.3 C 479.6 578.4, 467.6 567.2, 467.9 560.4 C 468.2 553.6, 477.0 549.7, 481.2 544.5 C 485.5 539.2, 488.0 532.8, 493.7 528.9 C 499.3 524.9, 511.2 526.5, 514.9 520.9 C 518.5 515.3, 512.4 501.4, 515.3 495.3 C 518.3 489.3, 527.2 488.6, 532.5 484.6 C 537.7 480.5, 540.3 472.1, 547.1 471.0 C 553.9 469.9, 567.6 481.3, 573.4 478.0 C 579.2 474.6, 577.2 456.6, 581.7 451.0 C 586.2 445.4, 593.5 442.8, 600.6 444.1 C 607.6 445.4, 617.2 458.2, 624.0 459.0 C 630.8 459.7, 635.1 452.6, 641.1 448.6 C 647.1 444.6, 653.8 434.2, 660.0 434.8 C 666.2 435.4, 671.7 452.0, 678.5 452.0 C 685.3 452.1, 694.8 433.6, 700.7 435.2 C 706.7 436.8, 707.6 459.7, 714.1 461.5 C 720.7 463.4, 733.2 446.6, 740.2 446.3 C 747.2 446.1, 751.8 454.3, 756.3 459.9 C 760.8 465.4, 762.4 474.9, 767.2 479.5 C 772.0 484.2, 780.4 483.4, 785.1 487.6 C 789.8 491.7, 789.9 500.8, 795.6 504.4 C 801.4 508.0, 815.0 504.6, 819.5 509.1 C 824.1 513.5, 822.4 523.8, 823.0 531.1 C 823.5 538.4, 817.8 548.2, 822.7 553.0 C 827.6 557.9, 849.6 554.9, 852.5 560.3 C 855.3 565.7, 839.8 578.6, 839.7 585.5 C 839.6 592.4, 851.7 595.7, 851.7 601.9 C 851.7 608.0, 838.6 615.9, 839.7 622.3 C 840.9 628.7, 854.4 633.7, 858.6 640.0 Z" fill="none" stroke="#7a6f5a" stroke-width="0.8"></path><path d="M 872.1 640.0 C 877.0 647.2, 892.8 655.7, 894.6 663.1 C 896.5 670.5, 885.2 677.0, 883.1 684.4 C 880.9 691.7, 883.7 700.1, 881.5 707.2 C 879.3 714.3, 876.2 721.8, 869.9 726.9 C 863.6 732.1, 849.0 732.8, 843.9 738.3 C 838.8 743.8, 842.7 753.8, 839.5 759.9 C 836.2 766.0, 826.4 767.0, 824.3 774.8 C 822.2 782.7, 831.6 801.7, 827.1 807.1 C 822.6 812.5, 805.8 806.2, 797.1 807.0 C 788.4 807.8, 780.6 807.7, 774.9 811.9 C 769.2 816.2, 768.6 828.6, 762.9 832.5 C 757.2 836.4, 747.1 831.4, 740.8 835.2 C 734.6 839.0, 730.9 848.3, 725.3 855.1 C 719.6 862.0, 714.3 876.3, 707.0 876.3 C 699.7 876.3, 689.0 859.7, 681.2 855.3 C 673.4 850.9, 667.0 850.7, 660.0 849.9 C 653.0 849.2, 646.1 851.3, 639.2 850.7 C 632.4 850.1, 625.8 847.5, 619.0 846.3 C 612.1 845.1, 605.2 844.6, 598.2 843.7 C 591.2 842.8, 582.9 844.1, 576.8 840.8 C 570.8 837.4, 567.7 827.6, 561.8 823.7 C 556.0 819.7, 550.5 817.0, 541.8 816.9 C 533.1 816.8, 516.6 826.0, 509.8 823.0 C 503.0 820.0, 504.8 805.9, 500.9 799.1 C 497.0 792.3, 489.5 789.2, 486.5 782.4 C 483.4 775.7, 489.0 763.4, 482.7 758.5 C 476.4 753.6, 454.1 758.2, 448.6 753.0 C 443.2 747.7, 452.1 734.5, 450.1 726.9 C 448.1 719.4, 439.3 714.8, 436.5 707.8 C 433.7 700.8, 434.9 692.6, 433.1 685.1 C 431.2 677.7, 427.6 670.6, 425.3 663.1 C 423.0 655.6, 415.8 647.4, 419.2 640.0 C 422.7 632.6, 443.4 626.4, 446.0 618.9 C 448.7 611.5, 433.5 602.1, 435.0 595.3 C 436.6 588.4, 454.8 585.8, 455.1 577.9 C 455.5 569.9, 435.6 554.8, 437.0 547.6 C 438.4 540.5, 459.6 541.8, 463.5 534.9 C 467.4 528.1, 455.7 512.2, 460.4 506.6 C 465.1 501.1, 485.5 506.8, 491.6 501.8 C 497.6 496.8, 492.4 482.6, 496.5 476.5 C 500.7 470.4, 510.7 470.0, 516.5 465.2 C 522.4 460.4, 526.0 453.0, 531.6 447.8 C 537.1 442.6, 542.8 436.4, 549.9 434.1 C 557.1 431.8, 567.1 435.4, 574.6 433.9 C 582.1 432.4, 587.4 425.0, 594.9 425.2 C 602.3 425.5, 611.8 434.2, 619.3 435.2 C 626.7 436.2, 632.6 432.3, 639.4 431.0 C 646.2 429.7, 653.2 427.0, 660.0 427.4 C 666.8 427.7, 672.7 436.5, 680.4 433.1 C 688.1 429.6, 699.6 406.0, 706.4 406.9 C 713.2 407.8, 715.5 431.8, 721.2 438.4 C 726.8 444.9, 733.8 443.8, 740.4 446.0 C 746.9 448.2, 752.4 451.8, 760.6 451.8 C 768.9 451.7, 782.2 444.0, 789.8 445.8 C 797.3 447.5, 801.0 456.3, 805.8 462.3 C 810.6 468.3, 813.8 475.7, 818.4 481.6 C 823.0 487.5, 830.8 490.7, 833.6 497.6 C 836.4 504.4, 833.0 515.8, 835.3 522.9 C 837.6 529.9, 840.6 535.2, 847.5 539.8 C 854.3 544.4, 869.5 545.2, 876.5 550.3 C 883.4 555.4, 887.7 563.0, 889.2 570.5 C 890.7 578.0, 889.5 586.9, 885.5 595.1 C 881.5 603.4, 867.4 612.3, 865.2 619.8 C 863.0 627.3, 867.2 632.8, 872.1 640.0 Z" fill="none" stroke="#7a6f5a" stroke-width="0.8"></path><path d="M 911.2 640.0 C 909.6 648.2, 905.7 655.9, 905.5 664.2 C 905.4 672.5, 912.9 682.2, 910.2 689.8 C 907.5 697.3, 890.8 701.2, 889.2 709.5 C 887.7 717.9, 899.3 730.1, 900.6 739.7 C 902.0 749.2, 902.7 760.2, 897.4 766.9 C 892.1 773.6, 878.2 775.8, 869.0 779.7 C 859.8 783.5, 847.7 783.5, 842.5 789.7 C 837.2 796.0, 839.9 808.3, 837.3 817.3 C 834.7 826.2, 831.4 835.4, 826.9 843.4 C 822.4 851.4, 818.1 861.4, 810.5 865.2 C 802.8 869.1, 790.1 865.3, 781.0 866.4 C 772.0 867.6, 763.7 868.2, 756.1 872.1 C 748.6 875.9, 743.2 885.1, 735.7 889.6 C 728.3 894.0, 720.3 901.8, 711.5 898.8 C 702.6 895.7, 691.4 870.7, 682.8 871.4 C 674.2 872.1, 667.9 900.3, 660.0 903.0 C 652.1 905.6, 644.2 887.9, 635.7 887.2 C 627.1 886.6, 616.7 899.7, 608.5 899.0 C 600.3 898.3, 594.8 884.9, 586.3 882.9 C 577.8 881.0, 564.3 892.2, 557.6 887.3 C 550.9 882.3, 552.1 859.8, 546.0 853.3 C 539.9 846.7, 529.2 850.4, 521.0 848.1 C 512.7 845.7, 504.4 842.8, 496.6 839.1 C 488.7 835.5, 481.3 830.8, 473.9 826.1 C 466.5 821.3, 453.7 819.8, 452.1 810.6 C 450.5 801.4, 468.6 778.4, 464.4 770.7 C 460.2 763.0, 432.3 770.6, 427.0 764.6 C 421.7 758.5, 434.9 742.5, 432.7 734.2 C 430.4 725.9, 418.5 721.9, 413.6 714.8 C 408.7 707.6, 401.7 699.6, 403.2 691.1 C 404.6 682.5, 423.0 671.9, 422.3 663.4 C 421.7 654.9, 398.3 647.7, 399.3 640.0 C 400.4 632.3, 428.3 625.8, 428.6 617.2 C 428.9 608.6, 404.3 597.4, 401.1 588.5 C 398.0 579.7, 402.5 570.4, 409.8 564.1 C 417.0 557.8, 440.6 558.3, 444.5 550.7 C 448.3 543.1, 429.7 525.6, 432.8 518.6 C 436.0 511.6, 456.5 513.8, 463.4 508.6 C 470.2 503.4, 469.0 493.3, 473.9 487.3 C 478.8 481.3, 487.3 478.5, 492.7 472.7 C 498.0 466.9, 503.3 462.1, 506.0 452.4 C 508.8 442.6, 503.7 420.9, 509.1 414.2 C 514.5 407.5, 529.6 414.3, 538.3 412.4 C 547.1 410.5, 554.2 406.7, 561.8 402.8 C 569.4 399.0, 576.0 392.0, 583.9 389.3 C 591.9 386.6, 601.1 387.2, 609.6 386.7 C 618.1 386.2, 626.6 389.0, 635.0 386.3 C 643.4 383.7, 651.7 370.7, 660.0 370.8 C 668.3 371.0, 676.6 384.1, 684.9 387.5 C 693.1 390.8, 700.7 391.6, 709.6 390.7 C 718.5 389.8, 729.8 380.8, 738.2 382.1 C 746.6 383.4, 751.8 395.3, 760.1 398.4 C 768.4 401.5, 782.4 393.7, 787.9 400.8 C 793.4 407.9, 787.1 434.3, 793.0 440.9 C 799.0 447.5, 817.3 435.9, 823.7 440.6 C 830.1 445.2, 828.2 460.4, 831.3 468.7 C 834.5 476.9, 835.2 485.6, 842.6 490.1 C 850.1 494.6, 867.7 491.4, 876.2 495.6 C 884.6 499.7, 893.1 506.2, 893.5 515.2 C 893.9 524.2, 878.3 540.6, 878.3 549.6 C 878.3 558.6, 891.5 561.7, 893.4 569.2 C 895.4 576.6, 886.4 586.6, 890.0 594.2 C 893.6 601.9, 911.7 607.2, 915.2 614.9 C 918.7 622.5, 912.8 631.8, 911.2 640.0 Z" fill="none" stroke="#7a6f5a" stroke-width="1.4"></path><path d="M 787.7 180.0 C 787.7 180.8, 785.5 181.6, 785.7 182.5 C 785.9 183.5, 788.9 184.9, 788.9 185.8 C 789.0 186.6, 786.3 187.0, 786.0 187.9 C 785.7 188.8, 787.1 190.3, 787.0 191.2 C 786.8 192.1, 785.9 192.8, 785.1 193.4 C 784.2 194.0, 782.6 194.0, 781.9 194.6 C 781.2 195.3, 781.1 196.2, 780.8 197.1 C 780.5 198.0, 780.6 199.4, 780.0 200.0 C 779.4 200.7, 777.8 200.2, 777.3 201.0 C 776.7 201.8, 777.4 204.4, 776.6 204.8 C 775.8 205.2, 773.6 203.5, 772.6 203.5 C 771.5 203.5, 771.2 204.7, 770.3 205.0 C 769.5 205.3, 768.4 204.6, 767.7 205.3 C 766.9 206.0, 766.6 208.7, 765.8 209.1 C 765.0 209.4, 763.7 207.8, 762.7 207.6 C 761.8 207.3, 760.9 207.8, 760.0 207.5 C 759.1 207.2, 758.3 205.9, 757.5 205.7 C 756.6 205.4, 755.6 206.3, 754.8 206.1 C 754.0 206.0, 753.3 205.2, 752.5 204.8 C 751.7 204.5, 751.2 203.6, 750.1 203.9 C 749.0 204.2, 746.7 206.7, 745.8 206.6 C 744.8 206.5, 744.9 204.2, 744.4 203.3 C 743.9 202.4, 743.2 201.9, 742.6 201.2 C 742.1 200.4, 741.7 199.6, 741.1 198.9 C 740.6 198.2, 739.9 197.6, 739.2 197.0 C 738.6 196.5, 737.5 196.1, 737.0 195.4 C 736.5 194.6, 736.7 193.5, 736.1 192.8 C 735.5 192.0, 734.1 191.7, 733.6 191.0 C 733.0 190.2, 733.0 189.2, 732.7 188.3 C 732.5 187.4, 731.6 186.6, 731.8 185.6 C 732.0 184.7, 733.7 183.5, 733.9 182.6 C 734.0 181.6, 733.1 180.9, 732.7 180.0 C 732.2 179.1, 730.9 178.0, 731.2 177.2 C 731.5 176.3, 733.7 175.7, 734.4 174.9 C 735.0 174.1, 735.4 173.5, 735.1 172.4 C 734.8 171.4, 732.8 169.7, 732.6 168.6 C 732.3 167.5, 732.5 166.4, 733.5 165.8 C 734.4 165.3, 737.2 165.9, 738.0 165.3 C 738.8 164.7, 737.6 162.7, 738.1 162.0 C 738.6 161.4, 740.3 161.6, 741.2 161.2 C 742.1 160.8, 742.8 160.4, 743.5 159.9 C 744.2 159.3, 744.5 158.4, 745.2 157.8 C 745.9 157.3, 746.8 157.1, 747.5 156.7 C 748.3 156.3, 749.0 155.8, 749.8 155.5 C 750.6 155.1, 751.5 154.9, 752.3 154.5 C 753.1 154.2, 753.9 154.2, 754.7 153.5 C 755.5 152.8, 756.2 150.8, 757.1 150.2 C 757.9 149.6, 759.0 150.0, 760.0 150.0 C 761.0 149.9, 762.0 149.7, 763.0 150.0 C 763.9 150.2, 764.7 151.2, 765.7 151.5 C 766.6 151.7, 767.8 151.1, 768.7 151.4 C 769.6 151.7, 770.5 152.4, 771.0 153.3 C 771.6 154.3, 771.5 156.6, 772.2 157.2 C 772.9 157.8, 774.4 156.8, 775.5 156.8 C 776.6 156.8, 778.1 156.5, 778.7 157.3 C 779.2 158.0, 778.6 160.1, 778.8 161.2 C 779.1 162.2, 779.3 163.0, 780.2 163.4 C 781.1 163.9, 783.4 163.3, 784.3 163.8 C 785.1 164.3, 785.3 165.4, 785.3 166.5 C 785.3 167.5, 783.7 169.2, 784.2 170.0 C 784.8 170.8, 788.0 170.5, 788.8 171.3 C 789.6 172.0, 789.5 173.2, 789.0 174.2 C 788.5 175.3, 785.9 176.5, 785.6 177.5 C 785.4 178.4, 787.6 179.2, 787.7 180.0 Z" fill="none" stroke="#7a6f5a" stroke-width="0.8"></path><path d="M 819.0 180.0 C 818.7 181.8, 814.1 183.5, 812.9 185.2 C 811.7 186.9, 811.5 188.4, 812.0 190.3 C 812.5 192.3, 816.6 195.4, 816.0 197.0 C 815.3 198.6, 809.8 198.7, 808.1 199.9 C 806.4 201.2, 806.3 202.8, 805.7 204.4 C 805.1 206.1, 804.4 207.5, 804.5 209.7 C 804.6 212.0, 807.5 216.7, 806.1 217.9 C 804.8 219.0, 798.1 215.4, 796.4 216.4 C 794.7 217.4, 797.2 222.6, 796.0 223.8 C 794.8 225.1, 791.0 223.0, 789.4 223.9 C 787.8 224.9, 787.8 228.4, 786.4 229.4 C 784.9 230.3, 782.5 229.6, 780.6 229.8 C 778.8 230.1, 776.9 229.4, 775.4 230.9 C 774.0 232.4, 773.3 237.6, 771.7 238.7 C 770.1 239.8, 767.6 238.1, 765.7 237.6 C 763.7 237.0, 761.9 235.5, 760.0 235.5 C 758.1 235.6, 756.1 238.2, 754.3 237.8 C 752.5 237.4, 751.1 234.1, 749.4 233.2 C 747.7 232.3, 745.8 232.8, 744.1 232.3 C 742.5 231.7, 741.0 230.6, 739.3 230.1 C 737.5 229.6, 735.2 230.1, 733.6 229.3 C 732.1 228.5, 731.0 226.5, 729.9 225.0 C 728.8 223.5, 728.7 221.0, 727.0 220.3 C 725.2 219.5, 721.3 221.3, 719.3 220.7 C 717.4 220.1, 716.1 218.4, 715.2 216.7 C 714.3 215.1, 714.4 212.7, 713.9 210.8 C 713.5 208.9, 712.8 207.2, 712.5 205.4 C 712.2 203.6, 713.7 201.2, 712.2 199.8 C 710.8 198.4, 705.0 198.5, 703.5 197.1 C 702.1 195.7, 703.5 193.2, 703.4 191.3 C 703.4 189.3, 703.3 187.5, 703.1 185.6 C 703.0 183.7, 702.0 181.8, 702.4 180.0 C 702.8 178.2, 705.8 176.6, 705.5 174.6 C 705.3 172.7, 700.7 170.0, 701.1 168.3 C 701.4 166.5, 706.6 165.8, 707.5 164.1 C 708.4 162.3, 706.0 159.6, 706.6 157.9 C 707.3 156.2, 709.9 155.3, 711.2 153.9 C 712.5 152.6, 713.2 150.9, 714.6 149.6 C 715.9 148.4, 718.4 148.1, 719.4 146.7 C 720.4 145.2, 719.5 141.9, 720.8 140.8 C 722.1 139.7, 725.5 140.7, 727.2 140.1 C 729.0 139.4, 730.1 138.4, 731.2 136.9 C 732.3 135.5, 732.8 133.0, 733.9 131.2 C 735.0 129.3, 736.1 127.2, 737.6 125.9 C 739.1 124.6, 741.0 123.9, 742.8 123.3 C 744.6 122.7, 746.5 121.6, 748.5 122.4 C 750.5 123.1, 753.0 126.9, 754.9 127.9 C 756.8 128.9, 758.2 129.6, 760.0 128.3 C 761.8 127.0, 764.1 120.2, 765.9 119.9 C 767.7 119.7, 768.7 126.1, 770.6 126.5 C 772.5 127.0, 775.6 122.3, 777.4 122.7 C 779.1 123.2, 779.2 128.5, 781.0 129.2 C 782.8 130.0, 787.0 125.9, 788.2 127.2 C 789.5 128.5, 787.5 135.5, 788.6 137.1 C 789.8 138.8, 793.4 136.5, 795.1 137.3 C 796.7 138.0, 796.9 140.5, 798.4 141.6 C 800.0 142.7, 803.0 142.4, 804.4 143.6 C 805.7 144.8, 805.3 147.4, 806.6 148.8 C 808.0 150.3, 811.8 150.3, 812.4 152.0 C 813.0 153.7, 810.6 157.1, 810.1 159.2 C 809.7 161.4, 809.7 163.1, 809.9 164.9 C 810.0 166.6, 810.3 168.2, 811.0 169.8 C 811.8 171.5, 813.3 172.9, 814.6 174.6 C 815.9 176.3, 819.3 178.2, 819.0 180.0 Z" fill="none" stroke="#7a6f5a" stroke-width="0.8"></path><path d="M 844.1 180.0 C 843.5 182.7, 841.2 185.3, 840.4 187.9 C 839.6 190.6, 839.9 193.2, 839.4 195.8 C 838.9 198.4, 836.7 200.4, 837.3 203.4 C 837.8 206.5, 843.4 211.6, 842.7 214.2 C 842.0 216.8, 834.8 216.7, 833.1 219.1 C 831.4 221.4, 833.9 226.1, 832.4 228.4 C 830.9 230.6, 826.6 231.1, 824.0 232.5 C 821.4 233.9, 818.8 235.0, 816.8 236.8 C 814.8 238.6, 813.9 241.6, 811.9 243.2 C 809.8 244.8, 806.8 245.3, 804.4 246.4 C 801.9 247.4, 799.2 247.7, 797.2 249.5 C 795.1 251.4, 794.1 255.3, 792.1 257.5 C 790.1 259.6, 787.6 261.7, 785.0 262.5 C 782.4 263.3, 779.2 262.0, 776.4 262.4 C 773.6 262.9, 771.1 265.5, 768.4 265.2 C 765.7 264.9, 762.8 260.1, 760.0 260.6 C 757.2 261.0, 753.9 268.2, 751.4 267.7 C 748.8 267.2, 747.1 259.1, 744.6 257.5 C 742.1 256.0, 738.9 258.6, 736.2 258.5 C 733.5 258.3, 730.8 257.7, 728.2 256.8 C 725.6 256.0, 723.1 254.8, 720.7 253.5 C 718.4 252.1, 716.9 249.6, 714.1 248.7 C 711.3 247.8, 707.0 249.0, 704.0 248.3 C 701.0 247.5, 698.0 246.1, 696.0 244.0 C 694.0 242.0, 692.6 239.0, 691.9 235.9 C 691.2 232.8, 692.0 228.7, 691.7 225.7 C 691.3 222.6, 692.5 219.3, 689.9 217.4 C 687.4 215.6, 678.0 216.8, 676.3 214.7 C 674.6 212.5, 679.3 207.4, 679.7 204.3 C 680.2 201.3, 679.3 198.8, 679.1 196.1 C 678.8 193.4, 679.0 190.7, 678.2 188.1 C 677.5 185.4, 673.8 182.6, 674.5 180.0 C 675.1 177.4, 681.1 175.0, 681.9 172.3 C 682.8 169.6, 679.3 166.6, 679.6 164.0 C 680.0 161.5, 684.0 159.8, 684.1 157.0 C 684.2 154.1, 679.7 149.6, 680.3 147.0 C 680.9 144.4, 686.0 143.6, 687.6 141.3 C 689.2 139.0, 688.8 135.7, 689.9 133.2 C 691.0 130.7, 693.2 128.8, 694.5 126.2 C 695.8 123.7, 695.1 118.9, 697.7 117.7 C 700.2 116.5, 706.8 119.4, 709.8 118.8 C 712.8 118.2, 713.7 115.3, 715.8 113.9 C 718.0 112.5, 720.8 112.2, 722.8 110.5 C 724.9 108.7, 726.4 106.1, 728.3 103.4 C 730.1 100.7, 731.6 95.8, 734.0 94.4 C 736.5 93.0, 740.2 95.3, 743.1 95.0 C 746.0 94.7, 748.6 91.8, 751.4 92.6 C 754.2 93.5, 757.1 100.4, 760.0 100.0 C 762.9 99.5, 766.1 90.7, 768.9 90.0 C 771.7 89.3, 774.2 94.1, 776.8 95.7 C 779.3 97.4, 781.8 98.6, 784.3 100.0 C 786.7 101.4, 789.0 102.9, 791.5 104.1 C 793.9 105.2, 797.0 105.2, 799.1 106.9 C 801.1 108.6, 801.8 112.6, 803.9 114.4 C 805.9 116.1, 808.8 116.4, 811.4 117.4 C 814.0 118.4, 817.2 118.9, 819.6 120.4 C 822.0 121.8, 824.7 123.4, 825.8 126.0 C 826.8 128.6, 824.6 133.6, 825.7 136.1 C 826.9 138.6, 831.1 139.0, 832.6 141.2 C 834.1 143.4, 833.6 146.6, 834.6 149.1 C 835.5 151.6, 837.3 153.8, 838.4 156.2 C 839.4 158.7, 840.0 161.3, 841.0 163.9 C 842.0 166.5, 844.0 169.0, 844.5 171.7 C 845.1 174.4, 844.8 177.3, 844.1 180.0 Z" fill="none" stroke="#7a6f5a" stroke-width="1.4"></path><path d="M 869.0 180.0 C 871.5 183.7, 878.8 187.9, 880.2 191.8 C 881.7 195.7, 879.6 199.9, 877.5 203.4 C 875.4 206.8, 869.5 209.2, 867.4 212.6 C 865.3 215.9, 865.7 219.7, 864.9 223.5 C 864.2 227.2, 865.5 232.3, 863.1 235.1 C 860.6 237.9, 852.7 237.4, 850.2 240.2 C 847.6 243.1, 849.8 249.0, 847.9 252.2 C 846.1 255.3, 842.7 257.6, 839.1 259.1 C 835.6 260.6, 829.6 259.1, 826.7 261.3 C 823.8 263.4, 823.9 269.3, 821.6 272.2 C 819.3 275.2, 816.2 277.6, 813.0 279.1 C 809.7 280.6, 805.4 279.9, 802.0 281.4 C 798.6 282.8, 796.2 286.9, 792.7 287.7 C 789.2 288.4, 784.7 285.1, 781.0 285.7 C 777.4 286.3, 774.5 290.8, 771.0 291.2 C 767.5 291.6, 763.6 289.1, 760.0 288.1 C 756.4 287.1, 753.5 283.8, 749.6 285.2 C 745.8 286.6, 740.2 297.3, 736.8 296.5 C 733.5 295.7, 732.9 282.6, 729.5 280.6 C 726.1 278.7, 720.9 284.0, 716.6 284.9 C 712.2 285.8, 706.4 288.2, 703.3 286.1 C 700.3 284.0, 701.6 274.5, 698.3 272.4 C 695.0 270.3, 685.6 276.3, 683.4 273.4 C 681.2 270.4, 687.3 258.2, 685.2 254.8 C 683.1 251.5, 674.5 254.9, 670.7 253.3 C 666.9 251.7, 665.2 247.9, 662.7 245.0 C 660.1 242.1, 655.8 239.9, 655.4 235.9 C 655.0 232.0, 660.3 225.3, 660.3 221.3 C 660.2 217.3, 656.7 215.1, 654.9 211.9 C 653.1 208.6, 651.0 205.4, 649.6 202.0 C 648.3 198.5, 646.1 194.8, 646.8 191.2 C 647.4 187.5, 653.4 183.7, 653.5 180.0 C 653.7 176.3, 647.0 172.3, 647.7 168.9 C 648.3 165.5, 656.9 163.3, 657.4 159.6 C 657.8 155.9, 650.0 150.3, 650.3 146.7 C 650.6 143.2, 656.4 141.0, 659.1 138.2 C 661.8 135.4, 664.4 132.9, 666.6 130.1 C 668.8 127.3, 670.6 124.5, 672.1 121.3 C 673.6 118.1, 673.8 113.7, 675.8 110.9 C 677.8 108.1, 681.3 106.3, 684.3 104.3 C 687.2 102.2, 691.7 102.6, 693.2 98.6 C 694.8 94.7, 691.5 84.0, 693.6 80.6 C 695.6 77.1, 702.1 79.9, 705.4 77.9 C 708.8 75.9, 710.2 69.4, 713.8 68.5 C 717.4 67.5, 722.9 70.4, 727.3 72.1 C 731.6 73.8, 736.1 78.1, 739.8 78.5 C 743.5 79.0, 746.3 76.8, 749.6 74.8 C 753.0 72.7, 756.4 67.4, 760.0 66.1 C 763.6 64.8, 767.8 65.0, 771.1 67.0 C 774.5 69.0, 776.6 77.4, 780.2 78.3 C 783.8 79.2, 788.5 73.5, 792.6 72.4 C 796.8 71.2, 802.3 68.7, 805.0 71.4 C 807.7 74.0, 805.8 86.2, 809.1 88.2 C 812.3 90.3, 821.5 81.8, 824.4 83.6 C 827.4 85.3, 824.0 96.1, 826.7 98.7 C 829.5 101.3, 837.3 97.6, 840.9 99.1 C 844.4 100.6, 845.0 105.3, 848.1 107.7 C 851.2 110.1, 858.5 109.9, 859.4 113.6 C 860.4 117.3, 852.7 126.1, 853.7 129.9 C 854.6 133.7, 862.6 133.6, 865.3 136.4 C 867.9 139.2, 870.0 142.9, 869.6 146.8 C 869.2 150.6, 863.7 155.7, 862.9 159.5 C 862.2 163.3, 863.9 166.3, 864.9 169.7 C 865.9 173.1, 866.4 176.3, 869.0 180.0 Z" fill="none" stroke="#7a6f5a" stroke-width="0.8"></path><path d="M 904.3 180.0 C 907.0 184.6, 907.8 189.9, 906.9 194.5 C 906.1 199.1, 901.6 203.4, 899.4 207.7 C 897.2 212.1, 894.4 215.8, 893.7 220.6 C 893.1 225.3, 897.4 232.0, 895.5 236.1 C 893.5 240.2, 885.2 241.6, 881.9 245.1 C 878.6 248.7, 878.1 253.5, 875.5 257.2 C 872.9 260.8, 870.3 264.8, 866.3 267.2 C 862.2 269.6, 853.1 266.4, 851.4 271.4 C 849.6 276.3, 859.1 294.1, 855.8 296.8 C 852.6 299.5, 836.4 285.5, 831.9 287.7 C 827.5 289.8, 832.3 305.9, 829.3 309.6 C 826.3 313.3, 819.0 310.6, 813.9 310.1 C 808.7 309.5, 803.0 306.2, 798.3 306.3 C 793.7 306.5, 790.2 308.8, 786.0 311.0 C 781.9 313.1, 778.0 318.9, 773.7 319.1 C 769.4 319.3, 764.6 311.5, 760.0 312.0 C 755.4 312.6, 750.4 322.3, 746.0 322.4 C 741.6 322.4, 738.0 314.0, 733.7 312.4 C 729.3 310.8, 724.2 313.4, 719.7 312.9 C 715.1 312.4, 710.3 311.6, 706.4 309.4 C 702.4 307.2, 700.0 302.0, 696.0 299.7 C 692.0 297.4, 686.1 298.6, 682.6 295.9 C 679.1 293.2, 677.3 287.7, 675.0 283.6 C 672.7 279.4, 673.1 273.3, 668.8 271.2 C 664.6 269.0, 652.9 273.5, 649.5 270.7 C 646.1 267.9, 651.7 258.1, 648.6 254.5 C 645.5 250.8, 633.3 252.7, 630.9 249.0 C 628.4 245.3, 636.2 236.5, 633.8 232.3 C 631.5 228.0, 617.1 227.9, 616.9 223.4 C 616.6 218.9, 629.9 210.5, 632.3 205.4 C 634.7 200.3, 634.1 196.9, 631.2 192.7 C 628.3 188.5, 615.7 184.3, 614.9 180.0 C 614.0 175.7, 623.4 171.1, 626.2 166.8 C 628.9 162.6, 629.9 158.5, 631.5 154.4 C 633.1 150.3, 636.6 147.3, 635.5 142.2 C 634.4 137.2, 626.3 129.6, 624.9 124.1 C 623.6 118.5, 623.6 112.3, 627.2 109.0 C 630.8 105.7, 641.4 106.2, 646.8 104.4 C 652.2 102.5, 656.1 100.4, 659.6 97.6 C 663.2 94.9, 667.1 93.5, 667.9 87.9 C 668.7 82.3, 662.2 67.8, 664.7 63.8 C 667.1 59.9, 678.1 66.2, 682.5 64.0 C 686.8 61.8, 686.7 52.4, 690.9 50.7 C 695.1 49.0, 702.9 54.3, 707.6 53.5 C 712.4 52.7, 715.3 48.2, 719.4 46.1 C 723.5 44.0, 728.0 43.6, 732.3 41.0 C 736.7 38.4, 740.7 30.6, 745.3 30.4 C 749.9 30.2, 755.1 39.3, 760.0 39.8 C 764.9 40.3, 770.1 31.6, 774.4 33.3 C 778.8 35.0, 781.0 49.5, 785.9 50.0 C 790.7 50.6, 798.2 38.2, 803.5 36.7 C 808.8 35.2, 814.0 37.3, 817.6 40.9 C 821.2 44.6, 822.2 53.8, 824.9 58.6 C 827.6 63.3, 830.2 66.9, 834.0 69.3 C 837.7 71.8, 844.5 70.2, 847.6 73.3 C 850.6 76.4, 848.2 85.3, 852.2 87.8 C 856.2 90.3, 867.4 86.1, 871.7 88.4 C 875.9 90.6, 875.5 97.2, 877.8 101.3 C 880.1 105.4, 882.3 109.3, 885.5 112.9 C 888.7 116.6, 894.2 119.3, 897.0 123.3 C 899.7 127.3, 902.3 132.0, 902.0 136.9 C 901.7 141.9, 897.2 148.1, 895.3 153.1 C 893.5 158.1, 889.4 162.6, 890.9 167.1 C 892.4 171.6, 901.6 175.4, 904.3 180.0 Z" fill="none" stroke="#7a6f5a" stroke-width="0.8"></path><path d="M 934.1 180.0 C 936.6 185.6, 938.1 191.8, 938.1 197.5 C 938.2 203.3, 937.2 209.4, 934.5 214.7 C 931.8 220.0, 925.2 224.2, 922.0 229.1 C 918.9 234.1, 917.8 239.4, 915.7 244.5 C 913.5 249.6, 910.6 254.2, 908.9 259.6 C 907.2 265.1, 908.1 272.3, 905.4 277.2 C 902.8 282.1, 897.4 285.5, 893.0 289.2 C 888.7 292.9, 883.0 294.9, 879.3 299.3 C 875.7 303.7, 874.9 311.2, 871.2 315.5 C 867.4 319.7, 862.6 323.6, 856.7 324.8 C 850.9 326.0, 842.5 323.0, 836.3 322.7 C 830.0 322.4, 824.2 321.3, 819.2 322.8 C 814.1 324.4, 810.8 329.9, 806.1 332.1 C 801.5 334.3, 795.9 332.1, 791.1 336.2 C 786.3 340.4, 782.6 355.7, 777.4 357.1 C 772.3 358.5, 765.7 345.5, 760.0 344.6 C 754.3 343.7, 748.8 350.2, 743.1 351.5 C 737.4 352.9, 731.4 353.1, 725.7 352.5 C 720.0 351.9, 713.5 352.2, 709.1 347.9 C 704.7 343.5, 703.4 331.0, 699.3 326.5 C 695.3 321.9, 691.0 320.7, 684.8 320.7 C 678.7 320.6, 666.3 329.5, 662.4 326.1 C 658.4 322.7, 664.5 305.1, 661.1 300.5 C 657.7 295.8, 648.2 299.5, 641.9 298.1 C 635.6 296.7, 628.0 295.5, 623.4 292.1 C 618.8 288.7, 614.2 283.9, 614.1 277.5 C 614.0 271.0, 623.4 259.3, 622.7 253.4 C 621.9 247.5, 614.7 246.0, 609.7 242.3 C 604.7 238.5, 594.4 235.8, 592.7 230.8 C 590.9 225.7, 599.9 217.6, 599.3 212.0 C 598.7 206.3, 589.8 202.2, 589.1 196.8 C 588.3 191.5, 595.4 185.7, 594.7 180.0 C 594.1 174.3, 584.1 168.0, 585.2 162.8 C 586.4 157.5, 597.8 153.3, 601.7 148.5 C 605.7 143.8, 609.6 140.1, 609.0 134.2 C 608.3 128.2, 597.7 118.6, 598.0 112.9 C 598.2 107.2, 606.1 104.0, 610.4 100.1 C 614.8 96.1, 621.4 94.1, 623.8 89.0 C 626.3 83.9, 623.9 75.5, 625.3 69.4 C 626.7 63.3, 627.5 55.4, 632.2 52.2 C 637.0 49.1, 647.0 51.0, 653.8 50.6 C 660.6 50.2, 669.3 54.4, 672.9 49.6 C 676.5 44.9, 672.5 28.1, 675.6 22.1 C 678.6 16.1, 684.8 13.1, 691.1 13.7 C 697.4 14.4, 707.6 27.1, 713.3 26.1 C 719.1 25.0, 720.5 8.2, 725.7 7.5 C 730.9 6.8, 738.7 21.6, 744.4 21.9 C 750.2 22.2, 754.9 8.6, 760.0 9.2 C 765.1 9.7, 769.7 24.4, 775.2 25.3 C 780.7 26.1, 787.2 15.7, 793.0 14.2 C 798.7 12.7, 805.2 12.7, 809.6 16.4 C 814.1 20.0, 814.7 33.4, 819.7 36.0 C 824.6 38.6, 833.1 31.8, 839.2 31.9 C 845.2 32.0, 852.0 32.6, 855.9 36.5 C 859.8 40.3, 858.8 50.9, 862.5 55.2 C 866.1 59.4, 874.4 58.2, 877.9 62.1 C 881.5 66.0, 881.7 73.3, 883.7 78.5 C 885.7 83.6, 884.8 90.0, 890.2 93.0 C 895.6 96.0, 911.2 93.1, 915.9 96.7 C 920.6 100.2, 915.6 109.3, 918.2 114.5 C 920.8 119.7, 932.5 122.1, 931.5 128.0 C 930.5 133.8, 913.8 143.7, 912.4 149.7 C 910.9 155.7, 919.3 158.9, 922.9 164.0 C 926.6 169.0, 931.6 174.4, 934.1 180.0 Z" fill="none" stroke="#7a6f5a" stroke-width="1.4"></path><path d="M 946.6 180.0 C 948.0 186.3, 952.0 192.5, 954.4 199.1 C 956.8 205.8, 962.8 213.9, 960.9 220.0 C 959.0 226.0, 945.8 229.5, 942.9 235.5 C 940.1 241.5, 946.1 250.3, 943.8 256.1 C 941.5 261.9, 931.3 264.1, 928.9 270.3 C 926.6 276.5, 931.6 286.9, 929.8 293.5 C 928.1 300.1, 923.8 306.0, 918.5 310.1 C 913.3 314.2, 902.8 313.2, 898.3 318.3 C 893.9 323.4, 896.7 336.6, 891.8 340.6 C 886.8 344.6, 874.9 340.1, 868.6 342.5 C 862.2 345.0, 860.1 354.2, 853.7 355.3 C 847.3 356.4, 836.9 349.3, 830.1 349.3 C 823.4 349.3, 818.9 353.6, 813.2 355.3 C 807.4 356.9, 801.1 354.1, 795.6 359.1 C 790.1 364.2, 786.2 385.3, 780.3 385.6 C 774.3 386.0, 766.5 363.7, 760.0 361.2 C 753.5 358.8, 747.6 368.9, 741.2 370.8 C 734.8 372.8, 728.3 372.5, 721.6 373.0 C 714.9 373.6, 708.0 374.2, 701.1 374.0 C 694.3 373.8, 686.3 375.1, 680.5 371.9 C 674.7 368.7, 671.6 359.4, 666.5 354.9 C 661.4 350.3, 653.5 350.5, 649.9 344.7 C 646.4 338.9, 649.6 324.6, 645.2 319.9 C 640.8 315.1, 631.9 317.2, 623.8 316.2 C 615.6 315.3, 599.6 319.6, 596.4 314.3 C 593.2 308.9, 605.5 291.2, 604.3 284.0 C 603.2 276.8, 593.6 276.0, 589.7 271.0 C 585.8 266.0, 585.8 259.2, 581.0 254.1 C 576.2 249.0, 560.5 246.9, 560.8 240.4 C 561.0 234.0, 580.3 222.3, 582.2 215.4 C 584.1 208.4, 574.8 204.4, 572.1 198.5 C 569.3 192.6, 567.8 186.4, 565.7 180.0 C 563.6 173.6, 561.3 167.1, 559.4 160.2 C 557.5 153.4, 550.9 144.9, 554.0 139.0 C 557.2 133.1, 575.4 131.1, 578.3 124.9 C 581.2 118.7, 571.4 108.9, 571.2 101.8 C 570.9 94.7, 574.3 88.4, 576.9 82.1 C 579.6 75.9, 582.6 69.6, 587.0 64.4 C 591.4 59.3, 597.4 55.0, 603.2 51.4 C 609.1 47.7, 617.3 46.6, 622.4 42.4 C 627.5 38.2, 630.2 32.2, 633.7 26.1 C 637.2 19.9, 636.8 7.0, 643.4 5.5 C 650.0 4.1, 667.0 20.4, 673.2 17.5 C 679.4 14.7, 676.1 -5.8, 680.6 -11.8 C 685.0 -17.7, 692.8 -19.3, 699.9 -18.3 C 706.9 -17.3, 716.0 -8.3, 723.0 -5.8 C 730.1 -3.2, 735.8 0.9, 742.0 -2.8 C 748.2 -6.5, 753.9 -26.6, 760.0 -28.0 C 766.1 -29.3, 772.2 -12.4, 778.8 -11.0 C 785.4 -9.6, 793.4 -20.3, 799.7 -19.4 C 805.9 -18.5, 809.8 -7.2, 816.3 -5.5 C 822.7 -3.8, 833.2 -12.9, 838.4 -9.2 C 843.6 -5.5, 841.1 14.0, 847.4 16.5 C 853.7 19.0, 868.7 5.7, 876.3 5.9 C 883.9 6.2, 888.2 13.1, 893.1 17.8 C 897.9 22.6, 901.3 29.1, 905.5 34.5 C 909.7 39.9, 916.3 43.4, 918.2 50.1 C 920.1 56.9, 916.2 68.0, 916.8 75.3 C 917.3 82.5, 918.1 88.4, 921.7 93.6 C 925.3 98.7, 935.7 100.7, 938.3 106.1 C 940.9 111.6, 935.6 120.1, 937.5 126.1 C 939.5 132.1, 948.7 136.2, 950.2 142.2 C 951.7 148.1, 947.0 155.3, 946.4 161.6 C 945.8 167.9, 945.3 173.7, 946.6 180.0 Z" fill="none" stroke="#7a6f5a" stroke-width="0.8"></path><path d="M 968.5 180.0 C 967.7 187.1, 971.0 193.6, 973.7 201.1 C 976.5 208.5, 985.6 217.6, 985.0 224.8 C 984.5 231.9, 971.0 236.0, 970.4 243.8 C 969.8 251.6, 985.6 265.9, 981.4 271.7 C 977.2 277.6, 950.8 273.4, 945.1 278.9 C 939.3 284.5, 947.1 296.2, 947.2 305.1 C 947.2 313.9, 952.1 328.6, 945.2 332.0 C 938.3 335.4, 911.3 320.2, 905.7 325.7 C 900.2 331.2, 914.8 357.4, 911.8 364.9 C 908.7 372.5, 894.5 367.4, 887.5 370.8 C 880.5 374.3, 875.7 380.2, 869.9 385.6 C 864.0 391.0, 859.8 401.5, 852.4 403.0 C 844.9 404.5, 832.9 393.5, 825.1 394.6 C 817.3 395.7, 813.1 410.5, 805.7 409.7 C 798.3 408.8, 788.3 388.0, 780.6 389.5 C 773.0 391.1, 767.1 416.6, 760.0 418.9 C 752.9 421.2, 745.6 404.8, 738.0 403.1 C 730.4 401.5, 721.3 411.6, 714.5 408.9 C 707.6 406.3, 703.4 391.8, 697.1 387.3 C 690.8 382.7, 683.1 384.1, 676.5 381.6 C 669.9 379.0, 662.9 376.4, 657.5 371.7 C 652.2 367.0, 651.7 355.3, 644.3 353.1 C 637.0 350.9, 619.4 362.2, 613.5 358.5 C 607.7 354.8, 614.3 336.3, 609.3 330.7 C 604.2 325.2, 591.7 327.7, 583.4 325.0 C 575.0 322.2, 564.3 319.9, 559.1 314.2 C 553.9 308.6, 552.6 299.4, 552.0 291.2 C 551.5 282.9, 557.8 272.0, 555.9 264.5 C 554.0 257.1, 543.9 253.2, 540.5 246.6 C 537.2 239.9, 538.5 231.8, 535.9 224.6 C 533.4 217.3, 522.5 210.6, 525.0 203.1 C 527.6 195.7, 546.0 187.2, 551.0 180.0 C 556.0 172.8, 555.6 166.9, 554.9 159.8 C 554.2 152.7, 549.5 145.4, 546.8 137.6 C 544.1 129.8, 536.9 119.8, 538.6 112.8 C 540.3 105.9, 552.0 101.7, 557.2 96.0 C 562.4 90.3, 569.4 86.6, 570.0 78.4 C 570.5 70.2, 556.3 52.3, 560.7 46.8 C 565.0 41.3, 587.7 48.1, 596.2 45.6 C 604.7 43.1, 607.1 36.9, 611.9 31.9 C 616.6 26.8, 621.7 23.0, 624.8 15.2 C 627.8 7.5, 624.2 -10.6, 629.9 -14.7 C 635.6 -18.7, 652.4 -4.9, 658.9 -9.1 C 665.4 -13.4, 663.1 -35.1, 668.8 -40.2 C 674.6 -45.2, 685.0 -41.9, 693.4 -39.5 C 701.8 -37.0, 711.7 -24.9, 719.2 -25.3 C 726.6 -25.6, 731.4 -40.3, 738.2 -41.5 C 745.0 -42.7, 752.9 -34.8, 760.0 -32.5 C 767.1 -30.3, 773.4 -28.1, 780.5 -28.1 C 787.5 -28.0, 794.3 -29.8, 802.3 -32.5 C 810.2 -35.2, 820.5 -44.6, 828.1 -44.4 C 835.6 -44.2, 840.3 -34.0, 847.5 -31.3 C 854.7 -28.5, 863.5 -29.9, 871.0 -27.7 C 878.5 -25.6, 888.6 -25.6, 892.5 -18.3 C 896.3 -10.9, 889.9 9.8, 894.1 16.6 C 898.2 23.5, 908.9 20.7, 917.3 22.7 C 925.8 24.6, 942.4 21.2, 945.0 28.2 C 947.6 35.2, 930.1 57.1, 932.8 64.5 C 935.6 71.9, 956.9 66.9, 961.3 72.4 C 965.8 77.8, 956.1 90.6, 959.8 97.3 C 963.4 103.9, 978.5 106.1, 983.2 112.3 C 987.8 118.6, 988.3 127.0, 987.6 134.7 C 986.9 142.4, 982.0 150.9, 978.8 158.4 C 975.7 166.0, 969.4 172.9, 968.5 180.0 Z" fill="none" stroke="#7a6f5a" stroke-width="0.8"></path><path d="M 1019.4 180.0 C 1014.9 188.3, 999.2 195.1, 998.2 203.5 C 997.2 211.9, 1014.4 222.6, 1013.2 230.4 C 1012.1 238.2, 995.2 242.7, 991.3 250.2 C 987.5 257.7, 991.5 267.2, 990.0 275.3 C 988.5 283.4, 983.7 290.0, 982.3 298.8 C 980.9 307.6, 984.4 319.8, 981.7 328.1 C 978.9 336.5, 973.8 344.7, 965.9 348.9 C 957.9 353.2, 939.6 347.2, 933.9 353.9 C 928.1 360.5, 935.5 380.6, 931.3 388.8 C 927.2 396.9, 917.2 399.9, 908.8 402.7 C 900.4 405.6, 888.5 401.8, 880.9 406.1 C 873.2 410.4, 870.0 423.0, 862.9 428.5 C 855.9 434.0, 847.2 437.8, 838.5 438.8 C 829.8 439.9, 819.9 438.4, 810.7 435.1 C 801.6 431.7, 792.0 419.4, 783.5 418.6 C 775.0 417.9, 767.7 431.7, 760.0 430.6 C 752.3 429.5, 744.9 414.9, 737.1 412.3 C 729.3 409.7, 722.3 411.4, 713.3 415.0 C 704.2 418.6, 690.1 437.1, 683.0 433.9 C 675.9 430.7, 677.0 402.1, 670.6 395.8 C 664.2 389.5, 652.9 397.2, 644.5 396.0 C 636.2 394.8, 626.4 394.1, 620.6 388.6 C 614.8 383.1, 613.8 370.6, 609.7 363.2 C 605.5 355.8, 604.8 346.8, 595.8 344.2 C 586.8 341.7, 564.4 350.9, 555.7 347.7 C 547.0 344.4, 547.4 332.3, 543.4 324.7 C 539.5 317.1, 533.0 310.6, 531.8 302.0 C 530.7 293.3, 536.9 281.2, 536.6 272.5 C 536.3 263.8, 535.5 256.7, 530.2 249.7 C 524.9 242.8, 506.2 238.5, 504.6 230.8 C 503.0 223.1, 517.0 212.0, 520.7 203.6 C 524.4 195.1, 529.1 188.1, 526.8 180.0 C 524.5 171.9, 506.9 162.8, 507.1 155.1 C 507.2 147.4, 526.5 142.1, 527.7 133.8 C 529.0 125.5, 515.5 114.3, 514.6 105.6 C 513.8 96.9, 518.2 88.8, 522.7 81.7 C 527.2 74.7, 536.1 69.7, 541.6 63.3 C 547.1 56.9, 550.7 49.8, 555.5 43.4 C 560.4 37.0, 566.1 31.3, 570.8 24.7 C 575.5 18.1, 579.5 11.1, 583.7 3.7 C 587.8 -3.8, 588.2 -16.9, 595.8 -20.1 C 603.4 -23.2, 622.5 -10.6, 629.5 -15.3 C 636.5 -20.0, 633.5 -39.0, 638.0 -48.3 C 642.4 -57.6, 647.5 -70.1, 656.0 -71.0 C 664.6 -71.8, 680.1 -54.0, 689.2 -53.5 C 698.3 -52.9, 703.2 -63.4, 710.7 -67.8 C 718.3 -72.1, 726.2 -79.5, 734.4 -79.6 C 742.6 -79.8, 751.7 -70.7, 760.0 -68.5 C 768.3 -66.2, 776.3 -67.8, 784.2 -66.2 C 792.2 -64.6, 798.7 -57.4, 807.5 -58.6 C 816.3 -59.9, 828.3 -73.5, 837.0 -73.8 C 845.7 -74.0, 853.8 -67.8, 859.5 -60.2 C 865.2 -52.5, 862.6 -30.4, 871.1 -27.9 C 879.6 -25.3, 900.7 -45.3, 910.4 -45.0 C 920.1 -44.8, 924.3 -33.8, 929.3 -26.3 C 934.3 -18.8, 937.4 -9.1, 940.2 -0.2 C 943.1 8.6, 942.6 19.6, 946.5 26.9 C 950.3 34.3, 959.6 37.2, 963.3 44.1 C 967.1 51.0, 966.9 60.6, 969.0 68.3 C 971.2 76.0, 971.3 83.9, 976.4 90.4 C 981.4 96.9, 996.3 100.2, 999.4 107.4 C 1002.4 114.5, 990.4 125.6, 994.6 133.3 C 998.9 141.1, 1020.8 146.1, 1024.9 153.9 C 1029.1 161.7, 1023.8 171.7, 1019.4 180.0 Z" fill="none" stroke="#7a6f5a" stroke-width="1.4"></path><path d="M 1049.0 180.0 C 1043.1 189.2, 1028.9 197.5, 1023.1 205.9 C 1017.3 214.3, 1013.5 221.4, 1014.1 230.5 C 1014.7 239.7, 1026.4 251.6, 1026.8 260.9 C 1027.3 270.2, 1023.2 279.5, 1016.7 286.3 C 1010.2 293.1, 993.8 294.9, 987.9 301.8 C 982.0 308.7, 983.1 318.5, 981.2 327.8 C 979.3 337.1, 981.7 350.7, 976.4 357.6 C 971.1 364.5, 956.8 364.1, 949.2 369.2 C 941.6 374.3, 935.6 379.7, 930.9 388.2 C 926.2 396.8, 928.8 417.1, 920.8 420.7 C 912.8 424.2, 892.8 409.3, 882.8 409.7 C 872.7 410.0, 867.4 416.2, 860.5 422.6 C 853.6 429.0, 848.3 439.4, 841.3 448.1 C 834.3 456.8, 827.9 475.5, 818.6 474.7 C 809.4 473.9, 795.7 447.2, 785.9 443.2 C 776.2 439.2, 768.8 449.5, 760.0 450.8 C 751.2 452.0, 742.9 447.8, 733.3 450.7 C 723.8 453.5, 711.8 468.4, 702.7 468.0 C 693.6 467.5, 687.2 452.3, 678.7 447.9 C 670.2 443.5, 660.0 445.3, 651.6 441.6 C 643.2 438.0, 636.5 430.7, 628.4 426.1 C 620.4 421.5, 609.5 421.2, 603.6 414.1 C 597.7 407.0, 600.5 389.0, 593.0 383.5 C 585.6 377.9, 569.0 383.9, 558.9 381.1 C 548.8 378.3, 537.2 374.7, 532.5 366.7 C 527.8 358.7, 534.7 341.9, 531.0 333.0 C 527.2 324.2, 516.9 320.4, 510.2 313.5 C 503.4 306.7, 495.5 299.8, 490.3 291.7 C 485.0 283.7, 482.0 274.3, 478.8 265.3 C 475.6 256.3, 472.8 246.9, 471.1 237.5 C 469.3 228.0, 468.7 218.3, 468.2 208.7 C 467.6 199.2, 467.6 189.6, 467.8 180.0 C 468.0 170.4, 465.1 160.2, 469.3 151.4 C 473.5 142.5, 490.8 136.1, 493.2 126.9 C 495.5 117.7, 484.1 106.0, 483.2 96.0 C 482.4 86.1, 484.7 76.2, 488.0 67.3 C 491.2 58.4, 493.2 47.6, 502.6 42.4 C 512.1 37.3, 537.5 42.5, 544.9 36.3 C 552.3 30.0, 544.3 14.4, 547.0 5.2 C 549.6 -4.1, 553.3 -14.2, 560.9 -19.1 C 568.4 -24.0, 586.8 -16.0, 592.4 -24.3 C 597.9 -32.5, 586.4 -64.3, 593.9 -68.5 C 601.5 -72.7, 627.6 -47.7, 637.4 -49.4 C 647.2 -51.0, 646.8 -69.8, 653.0 -78.3 C 659.2 -86.9, 666.4 -96.4, 674.8 -100.8 C 683.2 -105.3, 693.6 -105.7, 703.3 -105.2 C 712.9 -104.6, 723.2 -98.6, 732.7 -97.4 C 742.1 -96.2, 751.2 -101.5, 760.0 -98.0 C 768.8 -94.6, 776.2 -77.1, 785.3 -76.6 C 794.4 -76.0, 805.8 -94.3, 814.7 -94.8 C 823.6 -95.3, 830.6 -83.8, 838.7 -79.5 C 846.8 -75.2, 856.0 -74.4, 863.2 -69.1 C 870.3 -63.7, 871.8 -48.6, 881.6 -47.5 C 891.4 -46.4, 910.5 -61.7, 922.0 -62.4 C 933.4 -63.2, 944.8 -59.8, 950.3 -51.8 C 955.7 -43.9, 951.8 -25.0, 954.7 -14.7 C 957.6 -4.4, 961.4 3.0, 967.4 9.8 C 973.5 16.5, 987.2 17.8, 991.1 25.6 C 994.9 33.4, 988.4 47.9, 990.7 56.7 C 993.0 65.5, 1000.6 71.0, 1004.7 78.6 C 1008.9 86.3, 1010.5 94.7, 1015.5 102.5 C 1020.5 110.3, 1027.5 117.3, 1034.7 125.4 C 1041.9 133.4, 1056.1 141.5, 1058.5 150.6 C 1060.9 159.7, 1054.9 170.8, 1049.0 180.0 Z" fill="none" stroke="#7a6f5a" stroke-width="0.8"></path><path d="M 166.0 720.0 C 166.0 720.8, 165.7 721.7, 165.6 722.5 C 165.6 723.4, 165.9 724.3, 165.8 725.1 C 165.8 726.0, 165.1 726.7, 165.3 727.7 C 165.5 728.7, 167.3 730.4, 166.9 731.1 C 166.6 731.9, 164.0 731.8, 163.2 732.4 C 162.5 733.0, 162.5 733.9, 162.3 734.9 C 162.1 735.8, 162.7 737.5, 162.0 738.1 C 161.4 738.7, 159.0 737.6, 158.4 738.4 C 157.7 739.1, 158.5 741.2, 158.3 742.3 C 158.0 743.4, 157.7 744.9, 156.8 745.1 C 155.9 745.4, 153.6 743.4, 152.7 743.9 C 151.9 744.3, 152.3 747.4, 151.5 747.7 C 150.7 748.1, 148.9 746.2, 147.9 746.0 C 146.9 745.8, 146.1 746.2, 145.3 746.5 C 144.4 746.7, 143.6 747.7, 142.7 747.5 C 141.8 747.4, 140.9 745.8, 140.0 745.8 C 139.1 745.8, 138.2 747.3, 137.3 747.6 C 136.4 747.9, 135.4 747.8, 134.5 747.7 C 133.6 747.5, 132.7 747.2, 131.9 746.6 C 131.1 746.1, 130.8 744.7, 129.8 744.5 C 128.9 744.3, 127.1 746.0, 126.3 745.6 C 125.6 745.1, 126.3 742.3, 125.4 741.9 C 124.5 741.4, 121.9 743.5, 121.1 743.1 C 120.3 742.6, 121.0 740.3, 120.6 739.4 C 120.3 738.4, 119.2 738.2, 118.8 737.4 C 118.4 736.6, 119.2 735.0, 118.4 734.5 C 117.5 733.9, 114.6 734.6, 113.8 734.0 C 113.0 733.4, 113.2 732.1, 113.4 731.0 C 113.7 729.9, 115.5 728.4, 115.2 727.5 C 114.9 726.6, 112.0 726.5, 111.6 725.7 C 111.1 724.8, 112.4 723.6, 112.6 722.7 C 112.8 721.8, 113.0 720.9, 113.1 720.0 C 113.1 719.1, 113.6 718.3, 113.2 717.4 C 112.7 716.4, 110.2 715.0, 110.4 714.1 C 110.7 713.3, 114.4 713.3, 114.7 712.3 C 115.0 711.4, 112.4 709.5, 112.2 708.5 C 112.1 707.5, 113.0 706.6, 113.9 706.1 C 114.9 705.5, 117.2 705.9, 118.1 705.4 C 119.0 704.9, 119.0 703.9, 119.4 703.1 C 119.8 702.3, 120.1 701.4, 120.5 700.5 C 120.9 699.7, 121.3 698.6, 121.9 698.0 C 122.6 697.4, 123.7 697.2, 124.7 697.0 C 125.6 696.9, 127.1 697.8, 127.7 697.0 C 128.3 696.2, 127.6 692.4, 128.4 692.1 C 129.2 691.8, 131.5 695.1, 132.5 695.3 C 133.6 695.6, 134.0 694.3, 134.8 693.6 C 135.5 692.9, 136.3 691.4, 137.2 691.2 C 138.0 691.0, 139.1 692.2, 140.0 692.4 C 140.9 692.6, 141.8 692.4, 142.7 692.6 C 143.6 692.9, 144.4 693.6, 145.2 694.0 C 146.0 694.4, 146.5 695.5, 147.5 695.2 C 148.5 695.0, 150.3 692.8, 151.4 692.6 C 152.4 692.4, 153.2 693.3, 153.8 694.1 C 154.4 695.0, 154.5 696.6, 155.0 697.5 C 155.5 698.4, 156.2 698.9, 156.7 699.6 C 157.3 700.3, 157.4 701.4, 158.2 701.8 C 159.1 702.2, 161.1 701.6, 162.0 702.0 C 162.9 702.4, 163.4 703.3, 163.7 704.2 C 163.9 705.1, 163.3 706.5, 163.6 707.4 C 163.9 708.3, 164.7 708.8, 165.4 709.5 C 166.0 710.2, 166.9 710.9, 167.5 711.7 C 168.1 712.4, 169.2 713.3, 168.9 714.2 C 168.7 715.2, 166.3 716.5, 165.8 717.5 C 165.4 718.4, 166.0 719.2, 166.0 720.0 Z" fill="none" stroke="#7a6f5a" stroke-width="0.8"></path><path d="M 198.3 720.0 C 198.0 721.8, 195.1 723.6, 193.8 725.3 C 192.6 727.0, 191.0 728.3, 190.7 730.1 C 190.3 731.8, 191.0 733.6, 191.8 735.7 C 192.7 737.9, 195.9 741.2, 195.8 743.1 C 195.7 745.0, 192.3 745.8, 191.0 747.3 C 189.7 748.8, 189.4 750.8, 188.0 752.0 C 186.5 753.3, 183.6 753.4, 182.3 754.7 C 180.9 756.0, 181.1 758.5, 179.8 759.8 C 178.6 761.1, 175.9 760.8, 174.7 762.3 C 173.5 763.8, 173.7 767.1, 172.6 768.8 C 171.5 770.5, 169.9 771.9, 168.1 772.7 C 166.4 773.5, 164.1 773.0, 162.2 773.5 C 160.3 774.0, 158.8 775.8, 156.9 775.7 C 154.9 775.6, 152.5 773.3, 150.5 772.9 C 148.6 772.4, 147.0 772.3, 145.2 772.9 C 143.5 773.6, 141.7 777.2, 140.0 776.9 C 138.3 776.6, 136.7 772.1, 134.9 771.3 C 133.2 770.5, 131.6 771.3, 129.6 772.1 C 127.6 772.9, 124.9 776.1, 123.0 776.1 C 121.1 776.1, 119.7 773.7, 118.4 772.1 C 117.1 770.5, 117.0 767.0, 115.2 766.4 C 113.4 765.7, 109.4 769.0, 107.8 768.2 C 106.2 767.5, 106.7 763.4, 105.6 761.9 C 104.5 760.4, 102.8 759.8, 100.9 759.1 C 99.1 758.3, 95.9 758.5, 94.5 757.4 C 93.0 756.2, 92.6 753.9, 92.0 752.1 C 91.3 750.3, 91.3 748.1, 90.7 746.3 C 90.1 744.6, 88.4 743.3, 88.2 741.5 C 88.0 739.6, 90.3 737.0, 89.4 735.3 C 88.6 733.7, 83.3 733.0, 82.9 731.4 C 82.5 729.7, 86.2 727.1, 87.1 725.2 C 87.9 723.3, 88.5 721.8, 87.9 720.0 C 87.2 718.2, 83.3 716.2, 83.2 714.4 C 83.0 712.6, 87.0 711.4, 87.0 709.5 C 87.0 707.5, 83.0 704.6, 83.2 702.8 C 83.4 701.0, 86.5 699.8, 88.1 698.5 C 89.7 697.2, 92.6 696.8, 92.9 694.8 C 93.2 692.8, 89.6 688.6, 89.9 686.5 C 90.1 684.4, 92.3 683.3, 94.2 682.4 C 96.1 681.5, 99.8 682.5, 101.2 681.2 C 102.6 679.9, 101.1 675.3, 102.7 674.6 C 104.4 673.8, 109.1 677.0, 111.1 676.7 C 113.1 676.4, 113.7 674.6, 114.8 672.9 C 115.9 671.1, 116.1 667.1, 117.6 666.0 C 119.1 664.9, 121.6 665.7, 123.7 666.1 C 125.7 666.5, 127.9 668.3, 129.7 668.3 C 131.6 668.3, 133.0 667.1, 134.7 666.1 C 136.4 665.1, 138.2 662.6, 140.0 662.2 C 141.8 661.8, 143.6 663.8, 145.5 663.8 C 147.4 663.9, 149.4 662.8, 151.4 662.6 C 153.4 662.3, 155.6 661.9, 157.5 662.3 C 159.4 662.8, 161.1 664.0, 162.7 665.1 C 164.3 666.3, 165.4 668.3, 167.1 669.4 C 168.7 670.4, 171.0 670.2, 172.5 671.4 C 173.9 672.6, 174.7 674.8, 175.8 676.4 C 176.8 678.1, 177.3 680.1, 178.6 681.4 C 179.8 682.7, 181.5 683.5, 183.4 684.4 C 185.3 685.2, 189.3 684.9, 189.9 686.7 C 190.6 688.4, 186.8 692.8, 187.3 694.7 C 187.8 696.6, 191.7 696.7, 192.7 698.2 C 193.8 699.7, 193.0 701.9, 193.8 703.7 C 194.5 705.4, 197.0 706.8, 197.3 708.6 C 197.6 710.4, 195.5 712.6, 195.7 714.5 C 195.9 716.4, 198.6 718.2, 198.3 720.0 Z" fill="none" stroke="#7a6f5a" stroke-width="0.8"></path><path d="M 226.4 720.0 C 227.1 722.6, 222.2 725.3, 221.7 728.0 C 221.2 730.8, 222.8 733.6, 223.3 736.6 C 223.7 739.5, 225.7 743.1, 224.6 745.7 C 223.5 748.2, 218.9 749.7, 216.6 751.7 C 214.3 753.8, 212.4 755.6, 211.1 758.0 C 209.7 760.3, 209.9 763.5, 208.7 765.9 C 207.4 768.2, 204.4 769.2, 203.5 772.1 C 202.7 775.1, 204.9 781.0, 203.7 783.7 C 202.4 786.3, 198.5 786.7, 195.8 788.0 C 193.1 789.2, 190.6 790.9, 187.5 791.1 C 184.4 791.3, 179.6 788.3, 177.0 789.3 C 174.4 790.2, 173.9 794.8, 171.8 796.8 C 169.8 798.8, 167.4 801.4, 164.7 801.4 C 161.9 801.5, 158.0 796.2, 155.3 797.1 C 152.6 798.0, 151.1 805.3, 148.6 806.9 C 146.0 808.4, 142.8 807.3, 140.0 806.5 C 137.2 805.7, 134.5 803.4, 131.9 802.0 C 129.4 800.5, 127.2 798.2, 124.6 797.6 C 122.0 797.0, 118.9 798.7, 116.2 798.4 C 113.6 798.1, 110.8 797.4, 108.6 795.7 C 106.5 794.1, 106.6 788.5, 103.4 788.4 C 100.3 788.3, 92.5 795.8, 89.8 795.1 C 87.1 794.4, 89.4 786.3, 87.3 784.2 C 85.3 782.1, 80.4 783.6, 77.5 782.5 C 74.6 781.4, 70.4 780.6, 70.0 777.4 C 69.7 774.2, 76.9 765.7, 75.3 763.2 C 73.7 760.7, 63.3 764.1, 60.5 762.5 C 57.7 760.9, 59.0 756.7, 58.6 753.7 C 58.3 750.7, 59.4 747.5, 58.5 744.7 C 57.6 742.0, 54.3 739.9, 53.1 737.3 C 52.0 734.6, 51.4 731.6, 51.9 728.7 C 52.4 725.8, 56.2 722.9, 56.1 720.0 C 56.0 717.1, 51.0 714.0, 51.3 711.3 C 51.5 708.5, 55.3 706.0, 57.4 703.6 C 59.5 701.2, 63.0 699.5, 63.8 696.9 C 64.6 694.3, 61.4 690.3, 62.3 687.8 C 63.1 685.3, 66.8 683.9, 69.0 682.0 C 71.1 680.2, 73.6 678.7, 75.2 676.7 C 76.8 674.7, 77.9 672.4, 78.9 669.8 C 79.9 667.2, 79.9 663.7, 81.2 661.2 C 82.4 658.7, 84.0 656.0, 86.4 654.7 C 88.9 653.5, 93.5 655.3, 95.8 653.8 C 98.1 652.3, 97.9 646.6, 100.3 645.7 C 102.7 644.7, 107.4 648.1, 110.2 648.1 C 113.1 648.1, 115.3 648.2, 117.4 645.5 C 119.5 642.9, 120.3 634.8, 122.5 632.2 C 124.8 629.6, 128.2 628.4, 131.1 629.8 C 134.0 631.2, 137.3 638.4, 140.0 640.6 C 142.7 642.8, 144.7 644.0, 147.6 642.9 C 150.5 641.7, 154.1 635.1, 157.2 633.6 C 160.3 632.1, 163.8 632.0, 166.1 634.0 C 168.4 635.9, 168.3 644.1, 170.9 645.4 C 173.6 646.6, 179.1 641.1, 182.1 641.3 C 185.1 641.6, 187.7 643.7, 188.9 646.8 C 190.2 649.8, 187.5 657.6, 189.5 659.7 C 191.5 661.7, 199.0 657.4, 201.0 659.0 C 203.0 660.7, 199.3 667.6, 201.4 669.6 C 203.5 671.6, 211.2 669.2, 213.5 670.9 C 215.7 672.7, 214.1 677.2, 214.7 680.1 C 215.3 683.0, 214.9 685.9, 216.8 688.2 C 218.8 690.5, 224.6 691.4, 226.5 693.8 C 228.5 696.1, 230.0 699.3, 228.5 702.4 C 227.0 705.5, 217.8 709.4, 217.5 712.4 C 217.1 715.3, 225.7 717.4, 226.4 720.0 Z" fill="none" stroke="#7a6f5a" stroke-width="1.4"></path><path d="M 259.8 720.0 C 259.3 723.6, 250.2 727.1, 248.2 730.7 C 246.2 734.2, 249.3 738.2, 248.0 741.5 C 246.7 744.8, 242.5 747.5, 240.5 750.5 C 238.4 753.5, 234.9 755.3, 235.7 759.6 C 236.5 763.9, 244.7 771.8, 245.3 776.3 C 245.9 780.7, 242.5 783.9, 239.4 786.4 C 236.3 788.9, 231.2 790.2, 226.8 791.3 C 222.4 792.4, 215.1 789.8, 213.0 793.0 C 210.9 796.2, 216.6 808.0, 214.3 810.6 C 212.0 813.2, 203.4 808.3, 199.2 808.6 C 195.1 809.0, 192.6 811.1, 189.5 812.6 C 186.3 814.0, 183.1 814.9, 180.3 817.3 C 177.4 819.7, 175.4 824.5, 172.4 827.0 C 169.4 829.4, 165.9 831.6, 162.3 831.9 C 158.6 832.2, 154.4 827.8, 150.7 828.7 C 147.0 829.7, 143.7 835.6, 140.0 837.4 C 136.3 839.2, 132.1 839.8, 128.2 839.7 C 124.4 839.5, 120.3 838.3, 116.8 836.4 C 113.3 834.5, 110.5 830.2, 107.2 828.2 C 103.8 826.2, 99.6 826.9, 96.8 824.3 C 94.0 821.7, 93.1 815.4, 90.4 812.8 C 87.8 810.1, 85.2 808.6, 81.0 808.3 C 76.9 807.9, 68.9 812.3, 65.5 810.8 C 62.1 809.3, 61.8 803.3, 60.8 799.2 C 59.8 795.1, 60.9 789.5, 59.5 786.1 C 58.0 782.7, 55.2 780.9, 52.3 778.6 C 49.4 776.3, 45.3 774.7, 42.2 772.3 C 39.2 769.8, 37.0 766.8, 34.1 763.9 C 31.2 761.0, 25.0 758.7, 24.8 755.0 C 24.6 751.2, 31.8 745.3, 32.9 741.3 C 34.0 737.3, 32.9 734.2, 31.4 730.7 C 29.9 727.1, 25.0 723.7, 24.1 720.0 C 23.3 716.3, 25.3 712.5, 26.1 708.8 C 27.0 705.1, 28.9 701.8, 29.2 698.0 C 29.4 694.1, 27.2 689.7, 27.8 686.0 C 28.4 682.2, 31.0 679.0, 32.7 675.6 C 34.4 672.1, 35.7 668.5, 37.8 665.4 C 39.9 662.2, 41.5 658.5, 45.1 656.6 C 48.8 654.7, 56.5 656.2, 59.7 654.1 C 62.9 652.0, 62.8 647.9, 64.2 644.2 C 65.5 640.5, 66.3 636.0, 67.7 631.9 C 69.2 627.8, 69.6 621.3, 72.8 619.5 C 76.0 617.6, 82.5 620.4, 87.0 620.8 C 91.4 621.2, 95.5 621.7, 99.3 621.8 C 103.2 621.9, 106.7 621.9, 110.1 621.4 C 113.5 620.8, 116.8 621.6, 119.8 618.7 C 122.9 615.8, 125.2 605.8, 128.6 604.1 C 131.9 602.4, 136.4 606.5, 140.0 608.4 C 143.6 610.3, 146.5 615.9, 150.3 615.5 C 154.1 615.1, 158.7 607.5, 162.7 606.1 C 166.7 604.7, 171.2 604.5, 174.3 607.0 C 177.3 609.5, 177.9 618.8, 181.0 621.0 C 184.1 623.3, 189.6 619.6, 193.2 620.5 C 196.7 621.5, 198.7 625.3, 202.3 626.8 C 205.8 628.3, 211.3 627.3, 214.4 629.4 C 217.4 631.5, 217.6 636.9, 220.5 639.5 C 223.5 642.0, 230.6 641.0, 232.0 644.5 C 233.3 648.1, 228.1 656.6, 228.8 660.6 C 229.5 664.7, 233.9 665.8, 236.1 668.6 C 238.3 671.5, 239.0 675.0, 242.0 677.8 C 245.0 680.5, 253.9 681.8, 254.2 685.4 C 254.4 689.0, 244.0 695.5, 243.5 699.4 C 243.0 703.4, 248.5 705.6, 251.2 709.0 C 253.9 712.5, 260.3 716.4, 259.8 720.0 Z" fill="none" stroke="#7a6f5a" stroke-width="0.8"></path><path d="M 275.5 720.0 C 276.1 724.5, 277.6 729.0, 278.0 733.6 C 278.5 738.2, 277.6 742.6, 277.9 747.4 C 278.3 752.3, 281.2 758.0, 280.3 762.6 C 279.4 767.1, 274.0 770.2, 272.7 775.0 C 271.4 779.7, 274.3 786.4, 272.6 790.9 C 270.8 795.3, 267.2 799.4, 262.3 801.7 C 257.4 804.0, 247.9 802.6, 243.2 804.7 C 238.5 806.8, 235.9 809.4, 234.2 814.2 C 232.4 818.9, 235.5 829.4, 232.8 833.1 C 230.1 836.8, 222.1 834.4, 217.9 836.6 C 213.7 838.8, 212.2 845.6, 207.6 846.4 C 202.9 847.2, 194.2 838.2, 190.2 841.2 C 186.2 844.1, 187.3 860.5, 183.7 864.1 C 180.1 867.6, 173.5 864.5, 168.4 862.6 C 163.3 860.7, 157.8 855.0, 153.1 852.8 C 148.3 850.5, 144.6 846.6, 140.0 849.1 C 135.4 851.6, 130.0 866.5, 125.4 867.9 C 120.9 869.2, 116.6 861.1, 112.7 857.2 C 108.8 853.3, 106.6 845.7, 102.3 844.4 C 97.9 843.1, 91.0 849.8, 86.4 849.3 C 81.9 848.8, 79.2 843.5, 75.1 841.4 C 71.0 839.3, 67.3 837.3, 62.1 836.6 C 56.9 835.8, 47.2 840.2, 44.1 836.8 C 41.1 833.4, 46.7 820.2, 43.8 816.2 C 40.9 812.2, 31.0 815.4, 26.7 813.0 C 22.4 810.6, 20.3 805.7, 18.0 801.5 C 15.7 797.4, 13.4 792.9, 12.8 788.0 C 12.1 783.1, 14.7 776.9, 14.2 772.1 C 13.7 767.4, 13.2 763.3, 9.8 759.5 C 6.3 755.7, -4.8 753.4, -6.5 749.1 C -8.1 744.8, 0.8 738.6, 0.1 733.8 C -0.7 728.9, -11.3 724.6, -10.9 720.0 C -10.5 715.4, 1.3 711.2, 2.5 706.5 C 3.6 701.7, -5.7 695.5, -4.0 691.4 C -2.4 687.2, 10.4 685.6, 12.5 681.3 C 14.5 677.0, 7.9 670.2, 8.3 665.5 C 8.7 660.8, 12.0 656.8, 14.9 653.1 C 17.8 649.5, 24.2 648.3, 25.8 643.7 C 27.4 639.0, 21.4 628.5, 24.6 625.3 C 27.7 622.1, 41.2 628.1, 44.6 624.6 C 48.0 621.0, 42.3 608.2, 44.8 604.0 C 47.2 599.7, 53.9 599.6, 59.2 599.0 C 64.4 598.5, 71.4 601.4, 76.2 600.6 C 81.0 599.8, 84.1 596.8, 87.9 594.3 C 91.8 591.8, 94.8 586.1, 99.3 585.7 C 103.7 585.4, 110.2 594.6, 114.6 592.2 C 118.9 589.8, 121.1 573.9, 125.4 571.4 C 129.6 568.8, 135.1 577.1, 140.0 576.8 C 144.9 576.5, 150.5 567.3, 154.8 569.5 C 159.1 571.8, 161.4 587.9, 165.8 590.4 C 170.1 593.0, 176.3 585.0, 181.0 585.0 C 185.6 585.0, 189.6 588.2, 193.7 590.4 C 197.8 592.5, 200.9 596.1, 205.3 597.9 C 209.6 599.7, 216.8 597.2, 219.6 600.9 C 222.4 604.6, 219.7 615.8, 222.1 620.0 C 224.5 624.2, 230.1 623.8, 234.0 626.0 C 237.9 628.2, 240.5 631.5, 245.7 633.3 C 250.8 635.1, 260.8 633.7, 264.9 636.6 C 268.9 639.4, 270.5 645.0, 269.8 650.6 C 269.2 656.2, 259.3 665.4, 260.7 670.0 C 262.2 674.6, 274.8 674.4, 278.5 678.0 C 282.3 681.6, 283.9 686.7, 283.1 691.5 C 282.4 696.3, 275.2 702.1, 273.9 706.8 C 272.6 711.6, 274.8 715.5, 275.5 720.0 Z" fill="none" stroke="#7a6f5a" stroke-width="0.8"></path><path d="M 313.9 720.0 C 311.4 725.7, 307.7 731.0, 305.3 736.3 C 302.8 741.6, 300.4 746.4, 299.2 751.7 C 298.0 756.9, 299.7 762.9, 297.9 767.9 C 296.1 772.9, 289.7 776.1, 288.4 781.5 C 287.2 786.9, 293.2 796.0, 290.4 800.4 C 287.6 804.8, 274.8 803.4, 271.6 808.0 C 268.5 812.5, 273.4 822.5, 271.5 827.9 C 269.7 833.4, 265.1 837.3, 260.6 840.6 C 256.1 843.9, 248.2 842.9, 244.7 847.6 C 241.1 852.2, 243.2 864.4, 239.3 868.7 C 235.5 872.9, 227.5 871.7, 221.8 873.0 C 216.0 874.3, 210.2 874.7, 204.8 876.5 C 199.5 878.3, 195.1 882.9, 189.6 883.6 C 184.1 884.3, 177.7 881.9, 171.9 880.5 C 166.2 879.1, 160.6 875.5, 155.3 875.1 C 150.0 874.6, 145.5 874.0, 140.0 877.9 C 134.5 881.7, 127.7 898.0, 122.4 898.3 C 117.2 898.5, 114.0 880.6, 108.3 879.2 C 102.7 877.8, 94.5 889.1, 88.5 889.9 C 82.4 890.7, 77.1 886.7, 72.1 883.9 C 67.1 881.0, 61.9 877.8, 58.3 872.8 C 54.8 867.7, 55.1 857.1, 50.8 853.5 C 46.5 849.9, 37.9 853.0, 32.4 851.1 C 26.9 849.2, 22.0 845.9, 17.7 842.3 C 13.5 838.6, 9.9 834.0, 7.1 829.0 C 4.4 824.1, 4.4 817.4, 1.2 812.8 C -2.0 808.1, -9.3 806.0, -12.1 801.3 C -15.0 796.6, -12.6 789.5, -16.1 784.7 C -19.6 779.9, -33.4 778.2, -32.9 772.5 C -32.5 766.8, -15.1 756.6, -13.4 750.5 C -11.6 744.4, -19.7 741.1, -22.2 736.0 C -24.7 730.9, -28.3 725.3, -28.3 720.0 C -28.2 714.7, -22.8 709.4, -21.8 704.1 C -20.7 698.7, -22.2 693.2, -22.0 687.8 C -21.8 682.3, -20.5 677.1, -20.5 671.3 C -20.5 665.5, -25.3 657.3, -22.0 652.9 C -18.8 648.4, -5.4 648.6, -1.0 644.6 C 3.4 640.7, 3.8 635.6, 4.2 629.3 C 4.6 622.9, -2.5 609.8, 1.5 606.3 C 5.4 602.8, 22.6 610.6, 28.1 608.1 C 33.6 605.7, 30.5 594.7, 34.5 591.4 C 38.4 588.1, 47.9 592.1, 52.0 588.3 C 56.1 584.6, 54.8 571.7, 59.2 568.8 C 63.6 566.0, 73.5 574.3, 78.3 571.1 C 83.2 568.0, 83.2 550.8, 88.4 549.9 C 93.6 549.1, 103.4 564.1, 109.4 566.1 C 115.4 568.1, 119.3 564.3, 124.4 561.9 C 129.5 559.6, 134.5 555.5, 140.0 552.1 C 145.5 548.6, 152.1 541.1, 157.6 541.2 C 163.2 541.3, 168.1 549.5, 173.3 552.6 C 178.4 555.8, 183.2 558.5, 188.5 560.1 C 193.8 561.8, 199.0 562.6, 205.2 562.6 C 211.3 562.7, 221.4 556.3, 225.3 560.5 C 229.2 564.6, 225.1 582.4, 228.5 587.5 C 232.0 592.6, 240.1 589.4, 245.9 591.0 C 251.6 592.6, 260.5 592.0, 263.0 597.0 C 265.5 602.0, 256.1 617.2, 260.7 621.0 C 265.2 624.8, 286.5 615.9, 290.1 619.7 C 293.6 623.6, 281.0 638.2, 281.9 644.1 C 282.8 650.1, 292.4 651.1, 295.6 655.5 C 298.9 660.0, 297.9 666.1, 301.4 671.0 C 304.9 675.9, 313.4 679.7, 316.5 684.9 C 319.6 690.1, 320.3 696.4, 319.9 702.3 C 319.4 708.1, 316.3 714.3, 313.9 720.0 Z" fill="none" stroke="#7a6f5a" stroke-width="1.4"></path><path d="M 337.8 720.0 C 335.7 726.4, 326.7 731.8, 327.6 738.5 C 328.5 745.2, 343.0 754.0, 342.9 760.4 C 342.7 766.7, 329.9 770.7, 326.8 776.7 C 323.6 782.6, 326.2 790.2, 324.1 796.2 C 322.0 802.3, 316.9 807.1, 314.2 813.1 C 311.5 819.1, 312.2 827.4, 308.0 832.3 C 303.8 837.1, 293.7 837.7, 288.8 842.1 C 283.9 846.5, 282.2 853.1, 278.6 858.6 C 274.9 864.0, 273.3 872.7, 267.0 874.8 C 260.7 876.8, 247.4 869.5, 240.7 870.7 C 234.0 872.0, 230.5 876.1, 226.7 882.2 C 222.8 888.2, 221.8 900.7, 217.5 907.2 C 213.3 913.7, 207.2 918.6, 201.0 921.1 C 194.8 923.5, 187.2 923.6, 180.1 921.7 C 173.1 919.9, 165.4 910.7, 158.7 910.1 C 152.0 909.4, 146.1 919.7, 140.0 917.9 C 133.9 916.1, 129.1 898.2, 122.3 899.5 C 115.5 900.8, 105.3 925.6, 99.1 925.8 C 92.9 926.0, 90.0 907.0, 85.1 901.0 C 80.2 895.0, 77.0 889.2, 69.7 889.8 C 62.4 890.4, 47.8 905.7, 41.3 904.7 C 34.8 903.6, 35.1 889.0, 30.7 883.6 C 26.2 878.3, 20.4 876.1, 14.7 872.7 C 9.0 869.3, 1.8 867.4, -3.4 863.4 C -8.6 859.4, -12.4 853.6, -16.7 848.6 C -20.9 843.5, -25.4 838.5, -29.1 833.0 C -32.8 827.5, -38.3 822.6, -39.1 815.7 C -40.0 808.9, -34.7 799.2, -34.1 792.1 C -33.4 785.0, -32.8 778.9, -35.1 773.1 C -37.5 767.4, -44.6 763.1, -48.3 757.5 C -52.1 751.9, -58.8 745.7, -57.6 739.5 C -56.3 733.2, -43.5 726.2, -40.9 720.0 C -38.2 713.8, -41.9 708.1, -41.7 702.1 C -41.5 696.1, -36.5 691.4, -39.7 684.2 C -42.9 677.1, -62.0 665.1, -61.0 659.0 C -60.0 653.0, -39.6 652.6, -33.6 648.1 C -27.6 643.5, -27.7 637.4, -25.0 631.8 C -22.3 626.2, -20.6 620.1, -17.5 614.7 C -14.5 609.4, -10.3 604.7, -6.6 599.7 C -3.0 594.6, 0.6 589.5, 4.4 584.4 C 8.3 579.4, 12.3 574.6, 16.3 569.3 C 20.3 564.1, 24.3 558.7, 28.4 552.9 C 32.5 547.1, 35.6 538.8, 40.9 534.6 C 46.2 530.4, 53.7 529.2, 60.3 527.7 C 67.0 526.1, 73.9 524.8, 80.9 525.3 C 88.0 525.9, 96.0 533.3, 102.4 530.8 C 108.8 528.2, 113.1 513.6, 119.3 510.1 C 125.6 506.6, 133.5 505.4, 140.0 509.8 C 146.5 514.2, 152.1 531.8, 158.1 536.6 C 164.1 541.4, 169.2 540.5, 176.1 538.7 C 182.9 536.9, 192.3 526.0, 198.9 525.8 C 205.5 525.6, 209.2 535.5, 215.5 537.7 C 221.9 539.8, 231.5 535.2, 237.0 538.6 C 242.4 542.0, 245.1 551.3, 248.2 558.1 C 251.3 564.8, 251.1 574.7, 255.8 579.0 C 260.4 583.3, 269.8 581.4, 276.1 583.9 C 282.4 586.4, 290.8 588.3, 293.6 594.0 C 296.4 599.6, 290.7 611.6, 293.0 617.7 C 295.3 623.8, 302.6 626.1, 307.3 630.6 C 312.1 635.1, 320.1 638.8, 321.5 644.8 C 322.9 650.8, 311.8 660.9, 315.9 666.6 C 320.0 672.3, 342.3 673.3, 346.3 679.0 C 350.4 684.6, 341.6 693.4, 340.1 700.3 C 338.7 707.1, 339.8 713.6, 337.8 720.0 Z" fill="none" stroke="#7a6f5a" stroke-width="0.8"></path><path d="M 362.7 720.0 C 363.5 727.6, 373.8 735.7, 373.0 742.9 C 372.2 750.2, 360.5 756.2, 357.9 763.3 C 355.3 770.5, 361.0 779.6, 357.5 786.0 C 353.9 792.3, 341.0 795.4, 336.5 801.4 C 332.1 807.4, 330.5 813.5, 330.8 822.0 C 331.1 830.5, 341.0 845.6, 338.4 852.6 C 335.9 859.6, 321.8 859.4, 315.6 864.1 C 309.3 868.8, 305.1 874.4, 300.8 880.8 C 296.5 887.2, 296.2 898.7, 289.8 902.5 C 283.4 906.3, 269.1 899.3, 262.5 903.4 C 256.0 907.4, 256.0 921.2, 250.5 926.7 C 245.0 932.3, 238.1 937.9, 229.7 936.6 C 221.4 935.3, 208.3 919.7, 200.3 918.9 C 192.4 918.2, 188.8 930.1, 182.2 932.3 C 175.6 934.4, 167.9 927.1, 160.9 931.7 C 153.8 936.3, 147.1 958.1, 140.0 960.0 C 132.9 961.9, 125.2 946.9, 118.0 943.1 C 110.8 939.4, 103.9 939.0, 96.7 937.6 C 89.5 936.2, 82.8 934.3, 74.9 934.5 C 67.0 934.7, 57.4 939.2, 49.3 938.9 C 41.2 938.6, 30.9 939.6, 26.5 932.4 C 22.0 925.2, 28.4 901.0, 22.6 895.7 C 16.9 890.4, -2.7 904.8, -8.2 900.6 C -13.8 896.4, -7.4 877.8, -10.6 870.6 C -13.7 863.4, -20.5 861.0, -27.1 857.2 C -33.8 853.3, -45.4 852.6, -50.6 847.4 C -55.8 842.2, -56.5 833.3, -58.3 826.0 C -60.1 818.7, -56.4 809.6, -61.5 803.5 C -66.5 797.3, -86.1 796.1, -88.5 789.3 C -90.8 782.5, -75.1 770.6, -75.5 762.9 C -75.8 755.1, -86.4 749.9, -90.7 742.7 C -95.0 735.6, -104.4 727.3, -101.2 720.0 C -97.9 712.7, -73.0 706.9, -71.4 699.2 C -69.9 691.5, -92.8 680.8, -91.9 673.9 C -91.1 666.9, -71.4 663.6, -66.3 657.4 C -61.3 651.2, -64.8 642.7, -61.5 636.5 C -58.1 630.4, -50.4 626.2, -46.3 620.4 C -42.2 614.6, -40.3 607.9, -37.0 601.7 C -33.8 595.5, -31.8 587.8, -26.7 583.2 C -21.6 578.5, -11.6 578.3, -6.2 573.8 C -0.9 569.3, 1.5 562.2, 5.5 556.1 C 9.4 549.9, 14.0 544.6, 17.7 537.0 C 21.4 529.3, 21.9 514.6, 27.8 510.0 C 33.6 505.4, 44.2 507.8, 52.7 509.3 C 61.2 510.7, 71.2 518.1, 78.9 518.5 C 86.5 518.9, 92.3 517.7, 98.5 511.5 C 104.8 505.2, 109.6 486.0, 116.5 481.1 C 123.4 476.2, 132.5 478.4, 140.0 482.2 C 147.5 486.1, 153.9 501.6, 161.3 504.2 C 168.6 506.7, 177.7 494.7, 184.3 497.3 C 190.9 499.9, 193.4 518.2, 200.7 519.9 C 208.0 521.6, 219.3 509.4, 228.0 507.5 C 236.8 505.6, 248.2 502.3, 253.1 508.5 C 258.0 514.6, 251.8 538.8, 257.4 544.3 C 263.0 549.8, 280.1 538.2, 286.6 541.3 C 293.2 544.5, 292.4 557.1, 296.8 563.2 C 301.1 569.4, 306.2 574.0, 312.6 578.3 C 319.1 582.7, 331.5 583.3, 335.6 589.3 C 339.6 595.4, 335.1 607.2, 337.0 614.7 C 339.0 622.2, 344.8 627.3, 347.2 634.2 C 349.7 641.0, 349.6 648.8, 351.7 655.8 C 353.8 662.8, 356.9 669.3, 359.7 676.3 C 362.4 683.3, 367.6 690.3, 368.1 697.5 C 368.6 704.8, 361.9 712.4, 362.7 720.0 Z" fill="none" stroke="#7a6f5a" stroke-width="0.8"></path><path d="M 410.0 720.0 C 415.4 728.2, 412.0 738.4, 406.9 746.3 C 401.9 754.2, 381.9 759.2, 379.5 767.6 C 377.1 776.0, 396.3 789.6, 392.8 796.7 C 389.3 803.8, 360.9 802.1, 358.3 810.4 C 355.6 818.7, 378.8 838.7, 376.8 846.6 C 374.8 854.5, 353.2 852.2, 346.4 857.9 C 339.5 863.6, 338.8 872.3, 335.9 880.8 C 333.0 889.3, 336.2 904.9, 328.8 908.8 C 321.4 912.8, 299.3 900.6, 291.5 904.6 C 283.7 908.6, 287.3 925.9, 282.2 932.8 C 277.1 939.8, 268.5 942.7, 260.9 946.2 C 253.3 949.6, 244.3 949.7, 236.8 953.6 C 229.2 957.5, 223.5 966.9, 215.7 969.4 C 207.8 972.0, 197.7 966.1, 189.5 968.8 C 181.2 971.5, 174.4 986.3, 166.2 985.5 C 157.9 984.7, 148.2 969.2, 140.0 964.0 C 131.8 958.7, 125.3 952.6, 117.0 953.9 C 108.6 955.3, 98.7 969.2, 89.8 972.2 C 80.9 975.2, 71.7 974.0, 63.6 971.7 C 55.6 969.4, 47.5 964.8, 41.3 958.2 C 35.1 951.6, 33.6 936.8, 26.5 932.3 C 19.5 927.8, 7.3 933.3, -1.1 931.2 C -9.5 929.1, -19.7 927.1, -23.7 919.5 C -27.8 911.9, -22.8 894.1, -25.6 885.6 C -28.4 877.1, -33.2 872.4, -40.6 868.2 C -48.0 864.0, -62.8 865.1, -70.1 860.4 C -77.4 855.7, -79.6 846.8, -84.4 840.0 C -89.3 833.1, -95.6 826.7, -99.4 819.2 C -103.2 811.7, -108.3 803.8, -107.2 795.0 C -106.2 786.2, -90.2 774.5, -93.2 766.4 C -96.2 758.2, -122.3 753.9, -125.4 746.1 C -128.5 738.4, -115.9 728.3, -111.6 720.0 C -107.4 711.7, -103.8 703.9, -99.9 696.4 C -96.0 688.8, -88.4 682.7, -88.1 674.6 C -87.9 666.5, -99.5 655.4, -98.6 647.6 C -97.6 639.8, -84.9 635.7, -82.6 627.8 C -80.2 619.9, -84.4 609.5, -84.4 600.0 C -84.5 590.6, -87.6 577.9, -82.9 571.0 C -78.3 564.2, -62.0 565.6, -56.5 558.8 C -50.9 552.0, -56.7 534.8, -49.8 530.2 C -42.9 525.6, -22.8 535.2, -15.0 531.1 C -7.2 527.1, -9.0 511.6, -2.9 506.2 C 3.2 500.8, 12.9 499.3, 21.7 498.8 C 30.6 498.2, 43.3 508.6, 50.1 502.9 C 56.9 497.2, 56.0 470.8, 62.5 464.6 C 69.1 458.5, 80.8 466.0, 89.5 466.0 C 98.2 465.9, 106.4 465.3, 114.8 464.3 C 123.2 463.4, 131.4 462.4, 140.0 460.4 C 148.6 458.3, 158.4 449.0, 166.4 452.0 C 174.4 455.0, 180.2 474.1, 188.0 478.5 C 195.8 482.9, 204.8 478.1, 213.2 478.6 C 221.7 479.1, 230.6 479.4, 238.8 481.4 C 247.0 483.4, 254.9 487.1, 262.6 490.6 C 270.4 494.1, 280.2 495.4, 285.4 502.4 C 290.6 509.4, 290.4 523.9, 293.9 532.5 C 297.3 541.1, 297.6 550.7, 306.0 554.0 C 314.4 557.3, 338.8 546.8, 344.3 552.4 C 349.7 557.9, 333.5 580.2, 338.8 587.2 C 344.1 594.1, 372.6 586.9, 375.9 593.9 C 379.2 601.0, 355.6 621.3, 358.5 629.5 C 361.4 637.7, 388.2 636.3, 393.3 643.2 C 398.4 650.0, 392.5 661.4, 389.3 670.4 C 386.2 679.4, 370.9 688.7, 374.4 696.9 C 377.8 705.2, 404.6 711.8, 410.0 720.0 Z" fill="none" stroke="#7a6f5a" stroke-width="1.4"></path></svg>